<?xml version="1.0" standalone="no"?>
<!DOCTYPE svg PUBLIC "-//W3C//DTD SVG 20010904//EN"
 "http://www.w3.org/TR/2001/REC-SVG-20010904/DTD/svg10.dtd">
<svg version="1.0" xmlns="http://www.w3.org/2000/svg"
 width="300.000000pt" height="450.000000pt" viewBox="0 0 300.000000 450.000000"
 preserveAspectRatio="xMidYMid meet">
<metadata>
Created by potrace 1.10, written by Peter Selinger 2001-2011
</metadata>
<g transform="translate(0.000000,450.000000) scale(0.050000,-0.050000)"
fill="#000000" stroke="none">
<path d="M3524 7396 c-13 -13 -35 -26 -49 -28 -14 -2 -41 -10 -60 -18 -19 -8
-35 -6 -35 5 0 34 -65 19 -75 -17 -5 -19 -22 -40 -38 -46 -16 -7 -24 -3 -17 8
7 12 -18 20 -61 20 -56 0 -75 -9 -83 -40 -11 -41 -25 -47 -99 -41 -27 2 -48
-11 -56 -35 -9 -28 -25 -36 -62 -29 -28 6 -65 -3 -85 -19 -53 -46 -93 -66 -76
-39 25 40 -28 25 -96 -27 -36 -27 -75 -50 -87 -50 -11 0 -25 -18 -31 -40 -6
-22 -2 -40 7 -40 10 0 13 -14 6 -30 -6 -17 1 -46 16 -64 16 -20 17 -28 3 -20
-13 8 -30 3 -39 -11 -24 -39 -26 -75 -3 -75 11 0 16 -19 9 -43 -8 -32 -5 -37
12 -20 38 38 60 26 47 -27 -9 -37 -5 -50 17 -50 18 0 25 -12 18 -30 -6 -16 -2
-30 10 -30 44 0 67 -79 34 -112 -17 -17 -26 -39 -20 -50 6 -10 2 -18 -10 -18
-11 0 -21 -16 -21 -35 1 -30 3 -31 20 -5 11 17 20 24 20 16 0 -20 -85 -164
-107 -179 -18 -12 -13 -51 19 -157 13 -45 12 -47 -18 -23 -19 15 -28 37 -20
49 8 13 0 16 -20 8 -18 -7 -39 -2 -46 10 -9 15 -5 17 14 6 15 -9 6 6 -22 33
-27 27 -57 46 -65 42 -8 -4 -15 2 -15 15 0 15 -11 15 -39 1 -26 -14 -43 -15
-51 -1 -7 11 -23 14 -36 6 -13 -8 -37 -17 -52 -19 -15 -2 -33 -13 -40 -23 -23
-35 -84 -17 -131 39 -51 60 -191 38 -191 -31 0 -49 -100 -52 -147 -5 -24 24
-50 41 -58 38 -8 -3 -15 2 -15 12 0 9 -27 12 -60 7 -47 -7 -60 -1 -60 26 0 27
-6 30 -27 13 -15 -13 -33 -17 -40 -9 -7 7 -13 -1 -13 -18 0 -48 -48 -80 -76
-52 -19 19 -24 16 -24 -12 0 -23 -10 -32 -28 -26 -15 6 -46 -2 -70 -19 -46
-32 -91 -18 -75 23 13 32 -35 53 -80 36 -20 -8 -43 2 -61 26 -18 25 -32 30
-42 16 -8 -13 -35 -29 -61 -37 -25 -8 -41 -20 -35 -26 6 -6 -14 -30 -45 -53
-31 -23 -52 -55 -47 -70 5 -15 1 -22 -10 -16 -11 7 -19 1 -20 -12 0 -13 -6
-44 -14 -70 -11 -32 -8 -43 11 -40 15 4 26 -10 24 -29 -1 -20 11 -35 30 -35
33 0 91 -70 92 -110 1 -11 25 -20 55 -21 59 -1 86 -19 86 -55 0 -13 23 -23 50
-24 39 0 49 -10 48 -45 -2 -25 5 -45 15 -45 9 0 17 11 18 25 0 14 9 9 21 -10
11 -19 33 -35 49 -35 16 0 29 -11 29 -25 1 -19 5 -18 17 2 30 46 180 54 212
11 15 -21 34 -31 43 -23 8 8 4 15 -9 15 -13 0 -23 9 -23 20 0 11 32 20 70 20
45 0 70 -10 70 -27 0 -14 13 -26 29 -26 16 0 25 7 19 16 -6 10 -2 17 9 17 11
0 23 -10 27 -21 4 -14 28 -10 66 10 73 37 188 41 201 5 6 -14 33 -27 61 -30
29 -2 45 5 38 16 -7 12 -20 16 -29 11 -9 -6 -26 1 -38 16 -18 21 -10 24 35 18
42 -7 74 7 128 54 40 35 90 65 113 66 23 2 41 12 41 21 0 10 14 13 31 6 18 -6
26 -3 19 8 -7 11 -2 20 10 20 12 0 18 8 12 17 -6 10 7 34 28 53 22 20 40 29
40 21 0 -9 13 -5 30 9 16 14 48 20 70 14 26 -7 36 -2 28 13 -6 13 15 -8 48
-46 33 -38 55 -81 50 -95 -6 -14 1 -26 16 -26 20 0 21 -5 2 -24 -13 -13 -24
-33 -24 -45 0 -12 8 -9 18 6 15 23 64 -72 71 -137 1 -5 10 -23 19 -38 13 -21
11 -24 -10 -14 -16 9 -14 3 4 -12 18 -14 39 -46 46 -71 8 -25 24 -45 35 -45
10 0 14 -8 8 -18 -6 -11 2 -32 19 -49 46 -46 -56 -132 -190 -161 -5 -1 -54
-47 -108 -102 -55 -55 -106 -98 -114 -96 -12 4 -56 -86 -66 -134 -7 -31 -68
-98 -79 -87 -7 8 -13 -10 -13 -38 0 -29 -9 -58 -20 -65 -11 -7 -20 -29 -20
-50 0 -20 -13 -50 -29 -66 -16 -16 -24 -35 -17 -42 7 -6 2 -12 -12 -12 -13 0
-20 -7 -14 -16 12 -20 -42 -182 -72 -219 -23 -27 -96 -35 -96 -10 0 24 -196
13 -227 -12 -21 -18 -33 -17 -52 6 -17 20 -36 24 -58 13 -18 -10 -136 -22
-263 -28 -126 -6 -219 -6 -205 -1 14 6 25 19 25 29 0 12 -14 12 -37 0 -25 -14
-44 -13 -60 3 -16 16 -23 16 -23 1 0 -39 -212 -19 -264 25 -44 38 -45 38 -16
0 28 -35 27 -37 -10 -23 -22 9 -112 14 -200 11 -88 -3 -185 -6 -215 -7 -30 -1
-55 -12 -55 -25 0 -12 -13 -28 -30 -34 -16 -7 -30 -26 -30 -44 0 -17 -8 -26
-18 -20 -21 13 -17 -40 4 -62 8 -7 14 -44 14 -82 0 -46 7 -63 23 -53 16 10 20
4 12 -16 -7 -17 1 -50 16 -72 23 -32 23 -43 4 -49 -18 -7 -16 -20 10 -49 19
-21 35 -50 35 -63 0 -14 14 -46 32 -73 17 -26 25 -58 18 -70 -7 -12 -3 -35 11
-51 15 -19 16 -29 3 -29 -31 0 -21 -77 11 -89 15 -6 21 -21 14 -33 -8 -12 -2
-30 12 -38 14 -9 26 -44 26 -77 0 -34 7 -57 16 -51 9 6 11 -5 4 -23 -7 -18 -4
-39 8 -46 31 -20 53 -143 25 -143 -12 0 -17 -9 -11 -19 7 -11 25 -15 40 -9 34
14 47 -8 63 -105 6 -42 20 -92 30 -110 12 -23 9 -37 -7 -44 -18 -7 -16 -10 4
-11 22 -2 21 -8 -6 -28 -32 -23 -30 -26 24 -30 57 -4 59 -1 42 51 -37 118
-138 446 -208 675 -41 132 -109 351 -153 487 -93 295 -95 318 -25 336 40 9
1611 -26 1802 -41 20 -1 67 88 143 268 236 559 358 687 755 797 183 50 219 34
232 -103 37 -384 771 -215 898 207 13 43 26 79 29 79 36 0 525 -197 651 -263
360 -187 456 -358 558 -997 22 -137 44 -273 50 -300 l10 -51 -215 6 c-201 6
-230 2 -412 -61 -108 -37 -200 -61 -204 -53 -19 30 -70 493 -70 636 0 224 91
494 198 591 43 39 57 92 23 92 -67 0 -211 -261 -252 -458 -59 -279 17 -987
103 -954 25 10 29 -8 24 -101 l-6 -113 -170 -38 c-530 -115 -718 -121 -963
-26 -258 100 -351 92 -532 -45 l-64 -49 -22 57 c-86 226 -219 884 -233 1153
-8 145 -19 213 -34 208 -52 -18 12 -600 96 -879 l27 -92 -107 11 c-68 7 -108
4 -108 -9 0 -23 66 -44 135 -45 54 0 54 -10 9 -189 l-36 -138 86 -332 c47
-182 85 -339 86 -349 0 -22 252 2 410 39 165 39 650 63 650 32 0 -13 -9 -23
-20 -23 -26 0 -20 1 -155 -31 -63 -15 -140 -28 -171 -28 -31 -1 -52 -8 -46
-17 5 -9 -28 -15 -73 -12 -104 5 -151 -10 -112 -34 21 -13 19 -17 -8 -18 -19
0 -35 -9 -35 -21 0 -14 13 -13 40 1 37 20 94 28 350 49 48 4 78 16 75 30 -4
13 3 18 14 12 11 -7 67 1 124 18 125 37 123 37 105 6 -11 -20 -8 -20 13 0 35
32 99 32 99 0 1 -17 5 -18 15 -3 16 24 84 21 103 -6 7 -9 39 -17 72 -19 90 -4
450 -27 466 -30 60 -9 111 5 84 23 -26 17 -26 19 3 20 18 0 38 -13 44 -29 9
-23 25 -25 77 -10 36 10 95 19 130 19 35 0 69 9 77 21 7 11 27 19 46 17 59 -8
147 41 237 133 48 49 95 89 103 89 8 0 14 29 12 65 -3 83 10 118 36 102 12 -8
15 -4 7 10 -8 13 -7 23 2 23 24 0 3 436 -23 478 -7 12 -4 22 9 22 15 0 15 11
1 39 -14 26 -15 43 -1 51 11 7 15 22 8 33 -6 11 -14 89 -16 175 -3 85 -13 167
-22 183 -15 24 -11 24 20 -1 32 -25 31 -18 -8 46 -39 63 -43 85 -25 125 17 38
16 45 -7 36 -23 -8 -25 1 -11 51 10 34 11 66 2 71 -8 6 -14 30 -13 56 2 25 -9
57 -23 71 -14 15 -25 47 -25 71 0 25 -11 56 -23 68 -13 13 -25 51 -27 83 -1
32 -14 73 -29 90 -14 18 -19 32 -10 32 8 0 1 16 -16 35 -16 19 -36 54 -43 78
-8 24 -27 48 -43 55 -16 6 -29 23 -29 39 0 16 -18 33 -40 39 -22 6 -40 25 -40
43 0 18 -8 28 -19 22 -10 -7 -50 20 -89 59 -70 69 -112 88 -112 50 0 -11 -15
-20 -32 -20 -27 0 -28 5 -8 30 24 29 21 33 -40 39 -16 2 -28 13 -26 25 6 27
-49 51 -63 28 -17 -28 -111 1 -111 34 0 17 -6 25 -13 18 -7 -8 -26 2 -42 21
-15 19 -22 24 -15 10 18 -37 -11 -30 -44 10 -17 21 -23 23 -14 5 10 -19 -2
-16 -32 10 -26 22 -41 30 -34 17 17 -28 -116 15 -151 50 -12 12 -35 23 -50 23
-15 0 -22 9 -15 20 7 11 5 31 -3 45 -9 14 -13 50 -10 80 4 31 -4 55 -17 55
-12 0 -17 9 -10 20 7 12 20 16 29 10 9 -5 22 13 29 40 7 28 22 50 32 50 11 0
20 15 20 32 0 23 12 29 40 22 22 -6 35 -3 30 6 -6 10 7 30 29 45 22 16 44 50
49 77 5 26 11 53 13 58 2 6 3 17 1 25 -1 8 5 15 14 15 21 0 18 102 -3 136 -9
13 -6 24 6 24 11 0 21 10 21 21 0 12 -9 16 -20 9 -11 -7 -20 2 -20 19 0 17
-10 31 -22 31 -16 0 -15 10 2 30 22 26 20 29 -7 18 -37 -14 -49 60 -13 82 12
8 15 43 8 86 -8 41 -16 137 -20 214 -10 223 -17 259 -54 266 -19 4 -35 15 -36
25 -2 11 -5 28 -8 39 -3 11 -6 29 -7 40 -2 11 -14 18 -28 15 -14 -3 -22 7 -19
22 3 17 -6 24 -24 17 -30 -12 -147 120 -136 152 3 10 -4 11 -16 4 -11 -7 -20
3 -20 22 0 19 -6 29 -13 22 -7 -7 -31 -2 -55 11 -23 13 -49 21 -58 19 -9 -3
-13 11 -10 31 4 24 -5 33 -31 29 -20 -4 -32 1 -26 11 6 9 -9 18 -33 20 -199
13 -297 23 -329 33 -20 7 -48 1 -61 -12z m452 -158 c94 -46 145 -88 197 -160
39 -54 80 -92 92 -85 12 8 15 4 8 -9 -8 -12 5 -32 28 -45 142 -75 191 -632 60
-675 -19 -7 -23 1 -13 27 77 201 34 472 -95 603 -57 58 -133 141 -170 185
-105 125 -241 167 -503 155 -222 -10 -473 -77 -447 -119 8 -13 4 -15 -11 -6
-13 8 -51 4 -85 -10 -35 -15 -51 -31 -38 -39 12 -7 -7 -14 -43 -14 -83 -2
-240 -48 -283 -84 -77 -63 -9 -244 107 -286 24 -9 25 -16 5 -37 -60 -65 -205
99 -205 233 0 112 41 160 165 189 58 13 222 69 365 123 424 161 625 173 866
54z m-446 -78 c0 -1 29 -5 65 -9 36 -3 65 2 65 11 0 10 14 18 30 18 17 0 30
-9 30 -20 0 -11 10 -20 21 -20 12 0 16 9 9 20 -7 12 -1 19 14 15 14 -3 33 -23
42 -45 11 -25 21 -31 30 -16 10 16 25 15 53 -6 21 -15 31 -28 21 -28 -10 0 -7
-11 7 -25 20 -20 28 -19 43 5 15 24 24 17 44 -36 16 -42 43 -70 74 -78 51 -13
140 -100 141 -137 1 -12 17 -39 36 -60 42 -47 51 -113 19 -133 -16 -10 -17
-15 -2 -16 12 0 20 -25 18 -55 -2 -30 6 -67 17 -82 27 -35 -22 -67 -81 -53
-29 7 -53 -3 -73 -31 -45 -65 -145 -30 -158 54 -4 21 -13 48 -22 62 -8 14 -7
25 3 25 10 0 14 22 9 50 -5 27 -18 44 -29 38 -10 -7 -16 0 -12 16 8 38 -113
153 -179 168 -30 8 -65 22 -78 32 -15 11 -29 9 -37 -4 -8 -13 -27 -18 -42 -12
-15 6 -29 0 -30 -14 -1 -16 -5 -15 -12 3 -8 20 -15 21 -25 5 -8 -13 -81 -28
-162 -34 -82 -6 -153 -17 -159 -25 -20 -26 -142 -23 -127 3 9 14 1 13 -20 -4
-19 -15 -40 -22 -47 -15 -7 7 -2 13 12 13 13 0 19 9 12 20 -15 25 -90 27 -90
3 0 -20 -173 -17 -193 3 -7 7 -4 25 6 39 11 14 19 43 18 65 -1 43 33 90 66 90
11 0 23 11 28 24 5 15 18 17 36 5 43 -26 119 -36 79 -9 -28 18 -14 29 27 22
10 -2 48 15 86 37 78 46 178 56 155 16 -8 -15 -7 -18 4 -8 17 16 20 23 26 75
1 13 18 18 38 13 19 -5 45 1 56 14 17 17 138 27 138 11z m259 -532 c23 -23 31
-67 29 -163 -3 -134 21 -181 107 -210 17 -6 25 -54 25 -145 0 -162 30 -188 88
-74 114 223 312 269 362 84 46 -172 -86 -369 -237 -356 -40 3 -71 -1 -67 -9
18 -49 22 -83 29 -247 5 -130 17 -198 42 -236 34 -52 33 -56 -20 -155 -175
-320 -638 -467 -756 -240 -50 98 -41 117 64 131 127 17 272 103 400 238 163
172 142 209 -35 63 -434 -357 -785 -253 -917 273 -35 136 -44 151 -110 183
-96 47 -127 99 -153 263 -27 170 -20 178 155 186 88 4 121 0 95 -11 -43 -18
-50 -16 151 -55 80 -15 90 -47 62 -195 -25 -140 -57 -173 -165 -173 -91 0 -98
16 -98 222 0 168 -18 188 -128 146 -143 -55 80 -408 257 -408 71 0 75 -3 62
-52 -16 -66 15 -104 99 -119 74 -14 150 17 150 62 0 24 -8 26 -41 8 -145 -77
-170 -9 -99 264 51 193 100 226 100 66 0 -165 149 -265 366 -244 159 15 249
144 221 318 -11 69 -8 74 41 80 71 9 58 46 -18 52 -181 14 -233 29 -198 54 63
46 11 71 -148 71 -158 -1 -220 -19 -195 -58 9 -14 64 -19 157 -13 l144 10
-172 -25 c-95 -13 -186 -36 -204 -51 -43 -36 -206 29 -173 69 25 29 -158 76
-213 54 -31 -11 -32 2 -19 133 20 205 21 207 119 187 122 -24 506 -11 632 21
147 38 172 38 209 1z m-72 -487 c78 -41 78 -211 0 -310 -48 -61 -237 -73 -337
-21 -116 60 -139 328 -30 354 80 18 318 4 367 -23z m-2237 -291 c0 -197 -3
-210 -40 -210 -37 0 -40 13 -40 210 0 197 3 210 40 210 37 0 40 -13 40 -210z
m480 86 l0 -123 56 53 c87 84 150 73 68 -12 l-64 -65 63 -76 c34 -41 58 -79
53 -83 -22 -23 -93 20 -128 76 l-38 64 -6 -65 c-4 -40 -17 -65 -35 -65 -23 0
-29 41 -29 210 0 173 5 210 30 210 23 0 30 -27 30 -124z m-354 91 c19 -18 -26
-69 -48 -56 -28 17 -21 69 9 69 14 0 32 -6 39 -13z m-586 -35 c0 -15 20 -33
45 -40 39 -11 41 -16 14 -37 -17 -14 -27 -41 -23 -60 8 -38 -26 -48 -47 -14
-9 14 -21 14 -40 -2 -33 -27 -71 -8 -57 30 6 15 1 33 -11 40 -40 25 -24 75 19
61 28 -9 40 -4 40 19 0 17 14 31 30 31 17 0 30 -12 30 -28z m1300 -2 c0 -17
18 -30 40 -30 46 0 54 -36 12 -52 -16 -6 -23 -27 -17 -49 10 -41 -23 -54 -46
-17 -10 15 -20 15 -35 0 -35 -35 -60 -26 -49 17 6 22 -1 43 -17 49 -15 6 -22
24 -16 40 6 16 24 25 40 19 17 -7 28 1 28 21 0 18 14 32 30 32 17 0 30 -13 30
-30z m-960 -100 c0 -18 -19 -30 -48 -30 -63 0 -99 -47 -84 -110 9 -36 26 -50
61 -50 58 0 87 -37 49 -62 -120 -78 -243 137 -138 242 48 48 160 55 160 10z
m240 -110 c0 -111 -6 -140 -30 -140 -24 0 -30 29 -30 140 0 111 6 140 30 140
24 0 30 -29 30 -140z m260 110 c0 -18 -19 -30 -48 -30 -107 0 -128 -142 -24
-160 67 -11 90 -49 41 -68 -127 -48 -232 145 -136 251 42 46 167 51 167 7z
m3613 -2467 c32 -274 21 -585 -24 -673 -97 -188 -473 -237 -1199 -155 -187 21
-399 35 -470 30 -120 -7 -142 -2 -268 64 -154 82 -192 75 -265 -49 -38 -64
-99 -96 -129 -66 -55 55 85 258 210 306 41 15 52 28 37 43 -73 73 -305 -163
-305 -312 0 -32 -11 -51 -31 -51 -123 0 18 326 184 424 49 30 63 46 44 58 -63
39 -204 -102 -286 -287 -59 -132 -122 -68 -66 67 118 280 365 378 641 253 169
-76 497 -88 764 -28 77 17 208 46 290 64 83 19 220 35 305 35 106 1 155 9 155
25 0 30 -136 53 -215 37 -60 -12 -60 -11 -74 100 -8 61 -9 120 -2 130 37 61
422 140 605 125 l83 -7 16 -133z"/>
<path d="M4181 6048 c-68 -78 -75 -153 -15 -164 28 -6 33 2 24 40 -9 35 3 61
49 105 34 32 61 66 61 75 0 39 -61 10 -119 -56z"/>
<path d="M2904 5963 c15 -74 136 -81 136 -8 0 29 -16 37 -71 37 -51 0 -69 -8
-65 -29z"/>
<path d="M3435 5457 c-31 -22 -92 -46 -135 -52 -90 -12 -104 -35 -31 -53 70
-18 290 83 291 133 0 29 -71 13 -125 -28z"/>
<path d="M3420 5966 c0 -44 62 -79 100 -56 49 30 21 100 -40 100 -48 0 -60 -8
-60 -44z"/>
<path d="M638 3943 c16 -10 40 -15 55 -9 15 6 27 2 27 -7 0 -17 23 -17 216 -5
59 4 93 -3 105 -23 10 -16 19 -20 19 -9 0 13 69 20 178 19 97 0 194 5 215 14
22 8 -17 15 -95 16 -72 0 -270 6 -440 13 -205 7 -299 5 -280 -9z"/>
<path d="M2413 3931 c35 -15 72 -52 85 -84 l22 -57 -11 60 c-16 81 -44 110
-106 109 -52 -1 -52 -1 10 -28z"/>
<path d="M1830 3900 c15 -24 124 -24 180 0 29 12 7 18 -76 19 -73 0 -112 -6
-104 -19z"/>
<path d="M2080 3900 c-31 -20 -16 -27 44 -21 18 2 52 -13 75 -33 23 -20 67
-36 97 -36 40 0 53 -9 48 -35 -3 -19 5 -35 17 -35 13 0 18 -13 12 -30 -7 -19
0 -30 20 -30 26 0 27 -5 7 -30 -20 -24 -20 -30 0 -30 15 0 21 -16 14 -40 -6
-22 -2 -40 8 -40 10 0 18 -16 18 -36 0 -20 11 -47 24 -60 19 -19 19 -29 0 -48
-27 -27 -33 -64 -7 -48 21 13 66 -127 49 -154 -7 -11 -2 -14 9 -7 25 16 54
-56 35 -87 -7 -11 -2 -20 10 -20 13 0 36 -13 53 -30 20 -20 22 -30 6 -30 -18
0 -18 -7 -2 -27 13 -15 16 -33 8 -41 -8 -9 3 -28 24 -44 21 -15 29 -28 17 -28
-24 0 -23 -49 0 -73 24 -24 15 -50 -11 -34 -20 11 -20 8 -1 -15 13 -16 31 -74
41 -129 13 -76 25 -98 52 -96 25 2 31 -7 22 -35 -6 -21 -2 -38 10 -38 11 0 21
-15 21 -33 0 -19 5 -29 11 -23 17 17 -74 356 -96 356 -10 0 -14 13 -8 30 6 16
-5 95 -25 175 -40 156 -74 403 -43 315 25 -74 24 -2 -2 90 -18 65 -25 73 -36
41 -10 -27 -34 43 -77 218 -34 142 -74 265 -88 274 -36 23 -320 20 -356 -3z"/>
<path d="M1445 3386 c-14 -5 -25 -22 -25 -38 0 -15 -15 -28 -33 -28 -19 0 -28
-6 -21 -12 7 -7 -2 -26 -18 -43 -34 -34 -28 -81 28 -220 31 -78 51 -93 119
-90 13 0 19 -9 12 -20 -9 -14 4 -17 35 -8 26 7 69 13 94 13 26 0 41 8 35 18
-6 9 5 22 25 27 122 32 74 375 -52 375 -13 0 -24 8 -24 19 0 18 -128 23 -175
7z m169 -116 c52 -36 76 -133 47 -187 -48 -91 -164 -67 -210 43 -56 132 49
224 163 144z"/>
<path d="M840 2423 c0 -13 31 -23 69 -23 58 0 68 -6 57 -35 -12 -30 -9 -31 18
-9 41 33 493 31 535 -3 22 -18 25 -17 14 2 -16 26 10 35 34 11 19 -18 153 -24
153 -6 0 7 27 9 60 4 35 -5 54 -17 47 -29 -7 -12 -4 -15 8 -8 12 7 45 5 73 -6
34 -13 55 -13 63 1 8 12 35 16 62 9 27 -7 181 -17 342 -23 194 -7 299 -19 309
-34 11 -18 24 -18 51 -1 29 18 46 14 84 -17 44 -35 50 -36 67 -5 15 28 22 29
36 6 13 -19 22 -21 33 -4 8 12 65 29 125 38 61 9 119 18 130 20 11 1 36 4 56
6 20 2 31 11 25 21 -6 10 0 23 14 29 15 6 11 10 -10 11 -19 1 -35 -8 -35 -19
0 -12 -9 -16 -20 -9 -11 7 -91 2 -180 -10 -114 -16 -253 -16 -485 -1 -179 11
-415 26 -525 32 -110 6 -285 19 -390 29 -375 35 -820 47 -820 23z"/>
</g>
</svg>
