<?xml version="1.0" encoding="utf-8"?>
<!DOCTYPE svg PUBLIC "-//W3C//DTD SVG 20010904//EN" "http://www.w3.org/TR/2001/REC-SVG-20010904/DTD/svg10.dtd">
<svg height="450.000000pt" preserveAspectRatio="xMidYMid meet" version="1.0" viewBox="0 0 300.000000 450.000000" width="300.000000pt" xmlns="http://www.w3.org/2000/svg">
<metadata>
Created by potrace 1.10, written by Peter Selinger 2001-2011
</metadata>
<g fill="#000000" stroke="none" transform="translate(0.000000,450.000000) scale(0.100000,-0.100000)">
<path d="M1640 3635 c-58 -20 -118 -42 -135 -49 -16 -7 -67 -26 -111 -40 -110 -36 -133 -66 -112 -143 10 -38 66 -103 88 -103 7 0 -7 17 -30 38 -37 33 -43 44 -47 87 -7 67 6 78 159 130 68 24 157 55 198 70 99 36 227 39 310 7 50 -20 130 -82 130 -102 0 -5 24 -33 54 -62 84 -82 97 -169 50 -333 -5 -17 -4 -18 7 -7 8 7 14 26 15 42 1 16 5 37 9 47 4 10 7 47 6 83 -2 75 -28 137 -71 174 -16 13 -26 27 -22 31 4 5 1 5 -5 1 -7 -4 -13 -3 -13 2 0 16 -91 112 -106 112 -8 0 -17 7 -20 15 -4 8 -10 13 -15 10 -4 -3 -25 1 -45 10 -65 27 -174 19 -294 -20z"/>
<path d="M1738 3619 c-31 -4 -123 -32 -205 -62 -81 -30 -161 -57 -176 -61 -53 -13 -56 -88 -5 -131 16 -14 34 -25 39 -25 6 0 8 -10 4 -22 -5 -20 -5 -21 5 -5 13 20 -2 47 -25 47 -20 0 -49 64 -42 92 6 21 18 28 67 42 33 10 79 25 102 36 22 10 48 16 56 12 9 -3 13 -1 9 5 -4 6 21 20 61 33 110 37 342 35 342 -2 0 -5 4 -7 8 -4 9 5 67 -41 67 -53 0 -4 8 -15 18 -25 9 -10 17 -21 17 -26 0 -5 9 -12 21 -15 11 -4 25 -17 31 -31 6 -13 15 -21 19 -18 26 16 37 -208 11 -238 -6 -8 -8 -18 -4 -22 4 -5 -2 -7 -13 -5 -11 2 -30 -2 -41 -9 -12 -6 -23 -10 -25 -9 -2 1 -3 1 -3 -1 1 -2 -13 -18 -32 -36 -19 -18 -34 -38 -34 -45 0 -6 -4 -11 -10 -11 -13 0 -13 16 0 41 8 13 7 19 0 19 -6 0 -9 4 -6 9 4 5 -8 23 -25 40 -16 17 -27 35 -24 41 4 6 1 9 -5 8 -14 -3 -22 29 -10 37 5 3 4 19 0 37 -5 17 -7 34 -5 39 3 4 -7 17 -22 29 -21 16 -35 20 -58 15 -16 -4 -41 -8 -55 -10 -14 -2 -52 -9 -85 -15 -56 -11 -158 -9 -245 6 -34 5 -36 4 -51 -38 -21 -60 -24 -131 -5 -150 13 -14 9 -16 -36 -21 -28 -4 -55 -12 -60 -19 -13 -19 -1 -124 18 -164 9 -19 34 -47 55 -62 21 -15 39 -34 39 -43 0 -29 41 -141 63 -173 12 -17 35 -46 51 -65 27 -32 27 -35 11 -48 -10 -7 -39 -20 -64 -29 -95 -34 -164 -83 -210 -152 -8 -11 -19 -18 -24 -15 -6 3 -7 2 -4 -4 4 -6 -13 -49 -38 -97 -24 -47 -42 -86 -39 -86 2 0 -2 -13 -11 -30 -8 -16 -15 -32 -15 -35 0 -3 -7 -19 -15 -35 -9 -17 -13 -30 -9 -30 4 0 0 -7 -7 -16 -14 -17 -89 -16 -529 2 -80 3 -186 6 -236 5 -51 -1 -104 3 -119 9 -17 6 -24 7 -20 0 3 -6 -1 -10 -9 -10 -8 0 -17 -3 -19 -7 -3 -5 63 -8 146 -7 84 0 244 -3 357 -7 113 -4 256 -8 319 -10 l114 -3 57 135 c75 179 94 213 148 271 52 55 122 95 225 127 90 27 117 18 117 -39 0 -32 7 -48 34 -78 34 -37 35 -37 113 -37 63 0 87 5 127 25 64 33 146 114 170 170 11 25 21 46 22 48 0 1 55 -17 122 -42 251 -92 369 -176 412 -291 31 -84 56 -191 75 -320 9 -60 18 -123 21 -138 6 -27 5 -28 -17 -17 -39 21 -201 7 -289 -25 -41 -15 -82 -29 -91 -32 -13 -4 -18 9 -28 74 -7 43 -15 115 -18 161 -5 75 -13 96 -27 74 -8 -13 20 -261 35 -310 8 -28 17 -41 26 -38 10 4 13 -6 13 -38 0 -25 3 -51 6 -60 5 -12 0 -16 -19 -16 -14 0 -72 -11 -129 -25 -57 -13 -150 -29 -209 -35 -113 -11 -113 -11 -267 49 -86 34 -144 24 -214 -38 -20 -17 -38 -31 -41 -31 -2 0 -7 15 -11 33 -3 17 -17 68 -30 112 -26 87 -31 91 -116 93 -33 1 -34 0 -16 -13 11 -8 32 -15 48 -15 33 0 33 -3 10 -95 l-19 -70 45 -170 c24 -93 46 -172 48 -174 13 -13 12 12 -1 49 -8 24 -13 45 -10 48 3 3 0 11 -6 19 -6 7 -8 13 -3 13 14 -1 44 -26 44 -37 0 -5 9 -18 21 -29 16 -15 24 -16 39 -6 23 14 33 16 26 4 -2 -4 6 -9 19 -10 17 -1 34 11 62 43 21 25 42 45 48 45 18 0 105 -46 99 -52 -3 -3 52 -6 123 -6 70 0 155 -4 188 -11 116 -21 321 -29 467 -18 86 7 166 55 183 108 4 11 9 17 13 15 4 -2 7 10 8 27 1 18 2 48 4 67 3 41 -9 227 -16 252 -3 10 0 33 7 51 10 28 9 55 -6 148 -10 63 -19 125 -20 139 -1 14 -8 39 -14 55 -7 17 -13 45 -14 62 -1 18 -5 33 -9 33 -5 0 -8 8 -8 18 0 32 -47 117 -88 157 -53 53 -69 65 -76 58 -3 -4 -6 -1 -6 5 0 6 -9 14 -20 17 -11 4 -17 11 -14 17 4 7 2 8 -4 4 -6 -4 -37 6 -69 22 -32 16 -82 37 -112 47 -29 9 -65 24 -80 31 -14 8 -34 14 -43 14 -9 0 -19 4 -22 9 -3 5 -14 7 -24 4 -30 -7 -44 36 -47 141 -2 92 -1 96 20 96 12 0 40 16 62 35 66 56 79 158 27 214 -13 14 -22 32 -19 39 13 34 25 147 19 180 -10 53 -38 104 -71 126 -15 10 -42 37 -58 60 -36 48 -84 83 -134 95 -60 15 -133 19 -193 10z m156 -305 c12 -11 16 -33 15 -80 -2 -64 -1 -65 40 -103 40 -37 52 -61 30 -61 -14 0 -7 -82 8 -87 7 -3 21 13 32 35 25 49 84 102 114 102 60 0 91 -81 59 -153 -26 -57 -55 -80 -102 -83 -40 -2 -43 -3 -35 -26 2 -7 5 -54 7 -104 3 -65 9 -99 22 -118 16 -26 16 -28 -6 -72 -79 -159 -312 -239 -379 -130 -27 44 -25 66 6 66 46 0 134 41 184 86 101 91 119 149 21 67 -203 -170 -378 -129 -450 106 -11 35 -20 71 -20 81 0 11 -17 28 -42 42 -24 13 -48 35 -55 48 -19 40 -34 153 -22 165 5 5 53 11 105 11 103 2 144 17 78 30 -22 4 -52 7 -68 7 l-29 0 7 59 c11 107 12 109 60 100 65 -11 245 -5 316 11 85 20 86 20 104 1z m834 -1538 c1 -2 7 -62 14 -133 19 -214 -6 -302 -94 -338 -66 -28 -296 -32 -484 -10 -82 10 -192 17 -245 16 -92 -2 -99 0 -162 33 -37 20 -73 33 -81 30 -8 -3 -31 -26 -51 -50 -51 -62 -83 -59 -65 7 11 38 57 88 105 112 26 13 28 16 12 23 -44 17 -146 -94 -147 -158 0 -35 -27 -38 -36 -4 -11 46 42 139 107 186 28 20 35 29 25 33 -31 12 -96 -55 -135 -137 -26 -54 -29 -58 -39 -39 -37 69 104 225 206 226 21 1 77 -15 128 -36 123 -50 223 -48 469 10 61 14 146 26 189 28 50 1 81 6 84 13 2 8 -18 12 -66 12 l-69 0 -7 38 c-14 85 -13 87 63 112 90 28 164 39 226 33 28 -3 51 -6 53 -7z m-1282 -195 c3 -13 12 -37 20 -54 15 -28 14 -31 -5 -57 -11 -16 -23 -40 -27 -54 -3 -14 -10 -28 -14 -31 -14 -8 -54 183 -42 197 5 7 13 29 18 48 8 37 10 45 13 58 3 8 29 -69 37 -107z"/>
<path d="M1667 3143 c-22 -21 -2 -28 79 -26 90 2 109 8 84 23 -17 11 -153 13 -163 3z"/>
<path d="M1676 3101 c-28 -4 -52 -13 -54 -19 -5 -15 -34 -16 -49 -1 -13 13 -144 21 -158 9 -5 -4 -23 -10 -40 -12 -26 -3 -30 -8 -33 -37 -8 -82 70 -176 141 -169 17 2 32 8 34 13 2 7 -13 9 -38 7 -28 -3 -44 0 -50 9 -5 8 -9 52 -9 99 l0 86 59 -6 c32 -3 65 -11 73 -18 8 -6 18 -9 21 -6 3 4 2 -6 -3 -22 -26 -80 -58 -208 -54 -219 6 -14 47 -35 68 -35 8 0 24 9 37 21 l24 21 -25 -7 c-31 -9 -69 -9 -77 -1 -5 5 12 87 44 208 8 33 31 6 35 -43 7 -66 34 -95 105 -109 75 -16 127 -5 158 32 21 25 25 40 25 93 0 62 1 64 27 67 14 2 29 9 31 17 3 10 -3 12 -29 9 -19 -3 -41 -2 -49 2 -23 12 -160 19 -214 11z m187 -27 c36 -13 33 -128 -4 -165 -15 -15 -33 -19 -89 -19 -61 0 -74 3 -95 24 -26 26 -38 73 -33 127 2 28 8 35 33 41 33 8 162 2 188 -8z m-463 -63 c0 -27 3 -56 6 -65 4 -11 0 -16 -12 -16 -9 0 -14 3 -11 7 4 3 1 11 -7 17 -7 6 -16 32 -20 59 -5 45 -5 47 19 47 23 0 25 -3 25 -49z"/>
<path d="M1710 2984 c0 -12 7 -24 15 -28 24 -9 45 4 45 28 0 17 -6 21 -30 21 -24 0 -30 -4 -30 -21z"/>
<path d="M2106 3039 c-42 -39 -54 -90 -23 -97 15 -3 17 1 11 22 -5 21 0 32 26 56 17 16 30 35 28 42 -3 7 -19 -2 -42 -23z"/>
<path d="M1452 2982 c5 -25 34 -38 52 -23 26 22 19 37 -19 37 -26 0 -35 -4 -33 -14z"/>
<path d="M1715 2725 c-22 -14 -55 -25 -72 -25 -18 0 -33 -4 -33 -10 0 -5 19 -10 43 -10 32 0 53 8 85 31 23 17 42 33 42 35 0 10 -29 1 -65 -21z"/>
<path d="M714 3050 c-25 -10 -38 -28 -39 -50 0 -10 -10 -15 -27 -14 -16 0 -28 -4 -28 -8 0 -4 -6 -8 -14 -8 -48 0 -65 -106 -23 -148 26 -25 42 -28 129 -20 26 3 53 1 60 -3 7 -5 22 -2 35 6 18 12 25 12 52 -1 19 -10 39 -13 53 -8 13 4 54 8 93 8 80 1 92 15 56 65 l-20 28 26 24 c14 13 23 19 19 12 -7 -13 38 -48 52 -40 4 3 14 2 22 -3 12 -8 39 14 37 30 0 3 5 15 12 28 13 24 0 62 -21 62 -6 0 -19 7 -29 16 -16 14 -20 13 -54 -20 -36 -35 -52 -46 -40 -26 4 7 -3 7 -20 0 -28 -11 -49 -5 -40 11 10 16 -5 48 -26 54 -26 9 -49 -11 -49 -42 0 -23 -3 -25 -34 -21 -19 2 -32 0 -30 -4 5 -7 -1 -9 -38 -12 -8 -1 -12 9 -10 25 3 27 -17 52 -40 48 -29 -3 -49 2 -43 11 7 12 7 12 -21 0z m26 -125 c0 -98 -1 -105 -20 -105 -19 0 -20 7 -20 105 0 98 1 105 20 105 19 0 20 -7 20 -105z m240 38 l0 -68 26 33 c14 18 35 32 47 32 19 0 18 -3 -12 -34 l-33 -34 32 -36 c29 -32 30 -36 12 -36 -11 0 -32 15 -46 33 l-26 32 0 -32 c0 -23 -5 -33 -15 -33 -12 0 -15 18 -15 105 0 87 3 105 15 105 12 0 15 -14 15 -67z m-182 40 c-4 -22 -22 -20 -26 1 -2 10 3 16 13 16 10 0 15 -7 13 -17z m362 -8 c0 -8 9 -15 20 -15 23 0 27 -18 6 -26 -8 -3 -12 -13 -9 -25 6 -20 -11 -27 -22 -9 -5 8 -11 8 -20 0 -15 -12 -30 3 -20 20 3 6 0 13 -9 16 -8 3 -12 12 -10 19 3 8 12 11 20 8 8 -3 14 1 14 11 0 9 7 16 15 16 8 0 15 -7 15 -15z m-480 -50 c0 -9 -9 -15 -23 -15 -29 0 -47 -18 -47 -47 0 -22 29 -46 51 -41 6 2 14 -3 16 -9 7 -19 -57 -16 -79 4 -24 22 -24 77 2 103 24 24 80 27 80 5z m120 -55 c0 -56 -3 -70 -15 -70 -12 0 -15 14 -15 70 0 56 3 70 15 70 12 0 15 -14 15 -70z m130 56 c0 -9 -12 -16 -32 -18 -28 -2 -34 -8 -36 -31 -4 -34 14 -59 41 -55 11 2 22 -3 24 -9 7 -19 -62 -16 -81 3 -25 24 -21 90 6 108 29 20 78 21 78 2z m-256 -52 c8 -22 2 -27 -23 -19 -12 4 -18 12 -14 21 7 19 29 18 37 -2z m240 10 c26 -10 20 -37 -6 -28 -29 8 -31 10 -23 23 7 13 8 13 29 5z"/>
<path d="M451 3011 c-28 -23 -32 -32 -28 -59 7 -41 28 -62 65 -62 43 0 62 9 62 30 0 11 5 22 10 25 25 15 1 47 -65 87 -6 3 -25 -6 -44 -21z m53 -16 c-4 -10 0 -15 14 -15 25 0 37 -16 18 -23 -9 -4 -12 -14 -9 -26 6 -23 -7 -27 -25 -9 -10 10 -15 10 -21 -1 -5 -7 -14 -10 -20 -6 -9 5 -9 10 0 21 9 11 8 15 -5 20 -24 9 -20 33 4 27 14 -4 20 0 20 11 0 9 7 16 15 16 9 0 12 -6 9 -15z"/>
<path d="M2379 2368 c-44 -61 -75 -135 -84 -198 -13 -93 -14 -100 -4 -100 5 0 10 10 13 23 2 12 9 51 16 87 11 64 64 174 95 200 17 14 20 30 5 30 -5 0 -24 -19 -41 -42z"/>
<path d="M1339 2203 c-3 -76 5 -174 23 -258 34 -172 38 -188 43 -193 16 -17 13 20 -10 125 -17 71 -29 163 -33 231 -2 61 -9 112 -13 112 -5 0 -9 -8 -10 -17z"/>
<path d="M213 1983 c15 -2 37 -2 50 0 12 2 0 4 -28 4 -27 0 -38 -2 -22 -4z"/>
<path d="M312 1975 c8 -9 278 -11 278 -2 0 4 -64 7 -142 7 -78 0 -139 -2 -136 -5z"/>
<path d="M1185 1973 c41 -7 53 -18 70 -72 12 -36 14 -38 10 -12 -10 65 -26 86 -70 87 -29 1 -32 1 -10 -3z"/>
<path d="M815 1960 c99 -4 226 -8 283 -9 75 -1 101 -4 96 -13 -4 -6 -3 -8 4 -4 6 3 13 2 16 -3 15 -23 136 -523 130 -534 -5 -9 -4 -9 6 0 9 9 -2 66 -54 275 -37 144 -72 268 -79 275 -8 8 -97 13 -297 16 -226 4 -248 3 -105 -3z"/>
<path d="M1271 1834 c0 -11 3 -14 6 -6 3 7 2 16 -1 19 -3 4 -6 -2 -5 -13z"/>
<path d="M1281 1800 c0 -8 4 -22 9 -30 12 -18 12 -2 0 25 -6 13 -9 15 -9 5z"/>
<path d="M1301 1715 c0 -5 9 -39 19 -75 17 -55 19 -59 15 -22 -5 40 -33 120 -34 97z"/>
<path d="M743 1660 c-26 -10 -43 -39 -43 -72 0 -23 61 -98 79 -98 5 0 23 12 40 26 38 32 41 77 8 116 -26 31 -53 40 -84 28z m64 -25 c26 -18 38 -67 24 -94 -25 -45 -83 -33 -106 22 -27 63 27 111 82 72z"/>
<path d="M1364 1361 c11 -60 27 -113 32 -108 6 5 -25 129 -33 137 -3 3 -3 -11 1 -29z"/>
<path d="M371 1284 c0 -11 3 -14 6 -6 3 7 2 16 -1 19 -3 4 -6 -2 -5 -13z"/>
<path d="M1908 1273 c6 -2 18 -2 25 0 6 3 1 5 -13 5 -14 0 -19 -2 -12 -5z"/>
<path d="M1648 1243 c7 -3 16 -2 19 1 4 3 -2 6 -13 5 -11 0 -14 -3 -6 -6z"/>
<path d="M1401 1225 c0 -11 4 -29 9 -40 9 -20 9 -20 9 0 0 11 -4 29 -9 40 -9 20 -9 20 -9 0z"/>
<path d="M1608 1233 c7 -3 16 -2 19 1 4 3 -2 6 -13 5 -11 0 -14 -3 -6 -6z"/>
<path d="M1898 1223 c7 -3 16 -2 19 1 4 3 -2 6 -13 5 -11 0 -14 -3 -6 -6z"/>
<path d="M718 1203 c7 -3 16 -2 19 1 4 3 -2 6 -13 5 -11 0 -14 -3 -6 -6z"/>
<path d="M818 1193 c6 -2 18 -2 25 0 6 3 1 5 -13 5 -14 0 -19 -2 -12 -5z"/>
<path d="M958 1183 c6 -2 18 -2 25 0 6 3 1 5 -13 5 -14 0 -19 -2 -12 -5z"/>
<path d="M1010 1180 c8 -5 22 -9 30 -9 10 0 8 3 -5 9 -27 12 -43 12 -25 0z"/>
<path d="M1103 1173 c9 -2 23 -2 30 0 6 3 -1 5 -18 5 -16 0 -22 -2 -12 -5z"/>
<path d="M1583 1173 c9 -2 23 -2 30 0 6 3 -1 5 -18 5 -16 0 -22 -2 -12 -5z"/>
<path d="M1278 1163 c7 -3 16 -2 19 1 4 3 -2 6 -13 5 -11 0 -14 -3 -6 -6z"/>
<path d="M1503 1163 c9 -2 25 -2 35 0 9 3 1 5 -18 5 -19 0 -27 -2 -17 -5z"/>
<path d="M1348 1153 c7 -3 16 -2 19 1 4 3 -2 6 -13 5 -11 0 -14 -3 -6 -6z"/>
<path d="M1413 1153 c9 -2 25 -2 35 0 9 3 1 5 -18 5 -19 0 -27 -2 -17 -5z"/>
</g>
</svg>