<?xml version="1.0" encoding="utf-8"?>
<svg height="512" version="1.1" width="512" xmlns="http://www.w3.org/2000/svg"><g id="body"/><g id="head"/><g id="laptop"/><g id="hand-left"/><g id="hand-right"/>








































<path d="M0 0 C0 1.32 0 2.64 0 4 C-3.9813783 5.3271261 -7.85045227 5.06915913 -12 5 C-12 4.67 -12 4.34 -12 4 C-15.3 3.67 -18.6 3.34 -22 3 C-22 2.67 -22 2.34 -22 2 C-19.27123692 1.66304138 -16.54206837 1.33031571 -13.8125 1 C-13.04357422 0.90460938 -12.27464844 0.80921875 -11.48242188 0.7109375 C-7.63071189 0.24807106 -3.88829149 -0.12467468 0 0 Z " fill="#14191E" transform="translate(416,425)"/>
<path d="M0 0 C2.93774463 -0.05390357 5.87450232 -0.0936255 8.8125 -0.125 C10.06256836 -0.15013672 10.06256836 -0.15013672 11.33789062 -0.17578125 C12.14033203 -0.18222656 12.94277344 -0.18867188 13.76953125 -0.1953125 C14.50792236 -0.20578613 15.24631348 -0.21625977 16.00708008 -0.22705078 C18 0 18 0 21 2 C20.67 2.66 20.34 3.32 20 4 C15.33485757 4.07404988 10.71492954 4.06513227 6.0625 3.6875 C4.96615234 3.60048828 4.96615234 3.60048828 3.84765625 3.51171875 C2 3 2 3 0 0 Z " fill="#12191D" transform="translate(410,329)"/>
<path d="M0 0 C0.99 0.33 1.98 0.66 3 1 C4 4 4 4 3.00390625 6.04296875 C2.52824219 6.75066406 2.05257812 7.45835937 1.5625 8.1875 C1.08941406 8.90292969 0.61632812 9.61835938 0.12890625 10.35546875 C-0.42990234 11.16951172 -0.42990234 11.16951172 -1 12 C-1.66 11.67 -2.32 11.34 -3 11 C-3.33 11.66 -3.66 12.32 -4 13 C-4.66 13 -5.32 13 -6 13 C-4.58707905 8.1725201 -2.57025846 4.2837641 0 0 Z " fill="#22272C" transform="translate(186,244)"/>
<path d="M0 0 C0 0.33 0 0.66 0 1 C-6.6 1.66 -13.2 2.32 -20 3 C-19.67 1.68 -19.34 0.36 -19 -1 C-12.48520372 -3.17159876 -6.30641581 -2.1021386 0 0 Z " fill="#151B20" transform="translate(263,120)"/>
<path d="M0 0 C1.77119803 0.14133499 3.54195287 0.28823208 5.3125 0.4375 C6.29863281 0.51871094 7.28476562 0.59992188 8.30078125 0.68359375 C11 1 11 1 14 2 C14 2.66 14 3.32 14 4 C9.34462607 4.83796731 5.62921525 5.0161692 1 4 C1.66 3.67 2.32 3.34 3 3 C3 2.34 3 1.68 3 1 C2.01 0.67 1.02 0.34 0 0 Z " fill="#141B20" transform="translate(335,421)"/>
<path d="M0 0 C3 2 3 2 3.8125 5.25 C4.00458231 9.09164626 3.46012151 11.47853048 2 15 C-0.34240025 12.65759975 -0.36283032 11.82911717 -0.6875 8.625 C-0.77386719 7.85414063 -0.86023438 7.08328125 -0.94921875 6.2890625 C-1.00027694 3.98751626 -0.66593825 2.19308988 0 0 Z " fill="#161E24" transform="translate(434,284)"/>
<path d="M0 0 C2.68092691 2.68092691 2.38670257 4.39167363 2.625 8.125 C2.69976562 9.22070312 2.77453125 10.31640625 2.8515625 11.4453125 C2.92503906 12.70988281 2.92503906 12.70988281 3 14 C1.35 14 -0.3 14 -2 14 C-1.33333333 9.33333333 -0.66666667 4.66666667 0 0 Z " fill="#2C3136" transform="translate(440,311)"/>
<path d="M0 0 C9.17286652 -0.63019694 9.17286652 -0.63019694 12.625 2 C13.07875 2.66 13.5325 3.32 14 4 C13.01 4 12.02 4 11 4 C10.67 4.99 10.34 5.98 10 7 C9.34 6.67 8.68 6.34 8 6 C7.01 7.485 7.01 7.485 6 9 C5.67 6.69 5.34 4.38 5 2 C3.35 1.67 1.7 1.34 0 1 C0 0.67 0 0.34 0 0 Z " fill="#26272C" transform="translate(248,203)"/>
<path d="M0 0 C0.66 0 1.32 0 2 0 C1.8858134 1.93816735 1.75826577 3.87555099 1.625 5.8125 C1.55539062 6.89144531 1.48578125 7.97039062 1.4140625 9.08203125 C1 12 1 12 -1 15 C-1.8723412 12.00519083 -2.10829766 9.36424089 -2.0625 6.25 C-2.05347656 5.45078125 -2.04445313 4.6515625 -2.03515625 3.828125 C-2.02355469 3.22484375 -2.01195312 2.6215625 -2 2 C-1.34 2 -0.68 2 0 2 C0 1.34 0 0.68 0 0 Z " fill="#1D2428" transform="translate(439,306)"/>
<path d="M0 0 C0 0.99 0 1.98 0 3 C-2.64458379 4.32229189 -4.67761301 4.09677194 -7.625 4.0625 C-8.62789063 4.05347656 -9.63078125 4.04445313 -10.6640625 4.03515625 C-11.43492187 4.02355469 -12.20578125 4.01195312 -13 4 C-12.67 3.01 -12.34 2.02 -12 1 C-7.95858806 0.36605303 -4.0934693 -0.12404452 0 0 Z " fill="#12191E" transform="translate(338,388)"/>
<path d="M0 0 C1.95803507 -0.05389087 3.91648909 -0.09274217 5.875 -0.125 C7.51082031 -0.15980469 7.51082031 -0.15980469 9.1796875 -0.1953125 C12 0 12 0 14 2 C11.23547967 3.38226016 8.9538637 3.09525387 5.875 3.0625 C4.77929688 3.05347656 3.68359375 3.04445312 2.5546875 3.03515625 C1.29011719 3.01775391 1.29011719 3.01775391 0 3 C0 2.01 0 1.02 0 0 Z " fill="#0F181E" transform="translate(253,153)"/>
<path d="M0 0 C0.66 0 1.32 0 2 0 C2.08114106 1.77007714 2.13925505 3.54122098 2.1875 5.3125 C2.23970703 6.79169922 2.23970703 6.79169922 2.29296875 8.30078125 C2 11 2 11 0.48828125 12.85546875 C-0.00285156 13.23316406 -0.49398438 13.61085938 -1 14 C-1.02685938 11.85423363 -1.04633088 9.70837355 -1.0625 7.5625 C-1.07410156 6.36753906 -1.08570313 5.17257812 -1.09765625 3.94140625 C-1 1 -1 1 0 0 Z " fill="#151B21" transform="translate(438,371)"/>
<path d="M0 0 C5.28 0.33 10.56 0.66 16 1 C15.67 1.99 15.34 2.98 15 4 C10.71 4 6.42 4 2 4 C1.34 2.68 0.68 1.36 0 0 Z " fill="#262529" transform="translate(406,329)"/>
<path d="M0 0 C0.99 0.33 1.98 0.66 3 1 C1.21427748 2.83947337 -0.57802449 4.67157741 -2.375 6.5 C-2.88289063 7.02464844 -3.39078125 7.54929688 -3.9140625 8.08984375 C-5.23832604 9.43153181 -6.61605865 10.71995815 -8 12 C-8.66 12 -9.32 12 -10 12 C-8.52278578 8.54798361 -6.56205999 6.35038064 -3.875 3.75 C-3.15054687 3.04359375 -2.42609375 2.3371875 -1.6796875 1.609375 C-1.12539063 1.07828125 -0.57109375 0.5471875 0 0 Z " fill="#11181E" transform="translate(298,180)"/>
<path d="M0 0 C1.16144531 0.20367187 2.32289063 0.40734375 3.51953125 0.6171875 C4.39996094 0.78476563 5.28039062 0.95234375 6.1875 1.125 C6.1875 1.455 6.1875 1.785 6.1875 2.125 C3.56299914 2.34619939 0.93879514 2.55246669 -1.6875 2.75 C-2.43386719 2.81445312 -3.18023437 2.87890625 -3.94921875 2.9453125 C-5.8995047 3.08587365 -7.85719467 3.11259849 -9.8125 3.125 C-10.4725 2.465 -11.1325 1.805 -11.8125 1.125 C-7.51476021 -1.06029142 -4.69136533 -0.85297551 0 0 Z " fill="#D28E71" transform="translate(254.8125,115.875)"/>
<path d="M0 0 C0.33 0 0.66 0 1 0 C1 1.98 1 3.96 1 6 C1.66 6 2.32 6 3 6 C3 7.98 3 9.96 3 12 C1.68 12 0.36 12 -1 12 C-1.08159574 7.83861737 -0.98248524 4.0527516 0 0 Z " fill="#14191E" transform="translate(437,392)"/>
<path d="M0 0 C0.33 0 0.66 0 1 0 C1.36275656 2.26947697 1.71493186 4.54064735 2.0625 6.8125 C2.25972656 8.07707031 2.45695312 9.34164062 2.66015625 10.64453125 C3 14 3 14 2 17 C1.34 17 0.68 17 0 17 C-1.40333568 11.23073111 -0.67296616 5.81856895 0 0 Z " fill="#302B2A" transform="translate(277,127)"/>
<path d="M0 0 C0.33 0 0.66 0 1 0 C1.05395478 1.62463842 1.09277195 3.24978541 1.125 4.875 C1.14820313 5.77992187 1.17140625 6.68484375 1.1953125 7.6171875 C1 10 1 10 -1 12 C-1.33 11.67 -1.66 11.34 -2 11 C-2.66 11.66 -3.32 12.32 -4 13 C-3.67 10.69 -3.34 8.38 -3 6 C-2.01 5.67 -1.02 5.34 0 5 C0 3.35 0 1.7 0 0 Z " fill="#10161B" transform="translate(340,122)"/>
<path d="M0 0 C0.66 0 1.32 0 2 0 C0.59155282 3.21524305 -1.10344786 5.32183868 -3.625 7.75 C-4.57246094 8.67039062 -4.57246094 8.67039062 -5.5390625 9.609375 C-6.02117187 10.06828125 -6.50328125 10.5271875 -7 11 C-7.66 10.67 -8.32 10.34 -9 10 C-7.5484451 8.32742645 -6.08855591 6.66208242 -4.625 5 C-3.81289063 4.071875 -3.00078125 3.14375 -2.1640625 2.1875 C-1.44992187 1.465625 -0.73578125 0.74375 0 0 Z " fill="#D28E71" transform="translate(264,386)"/>
<path d="M0 0 C0.33 0.66 0.66 1.32 1 2 C2.32 2 3.64 2 5 2 C4.34 4.64 3.68 7.28 3 10 C2.34 9.01 1.68 8.02 1 7 C0.34 7 -0.32 7 -1 7 C-0.67 4.69 -0.34 2.38 0 0 Z " fill="#28282A" transform="translate(435,402)"/>
<path d="M0 0 C1.32 0.33 2.64 0.66 4 1 C4 2.98 4 4.96 4 7 C3.34 7 2.68 7 2 7 C1.67 7.66 1.34 8.32 1 9 C0.67 6.03 0.34 3.06 0 0 Z " fill="#141B1F" transform="translate(204,277)"/>
<path d="M0 0 C2.1519437 3.22791555 2.20086443 4.28400809 2 8 C1.34 8 0.68 8 0 8 C-0.33 8.66 -0.66 9.32 -1 10 C-2.4783226 7.04335481 -2.06032783 4.25770263 -2 1 C-1.34 0.67 -0.68 0.34 0 0 Z " fill="#131A1E" transform="translate(257,207)"/>
<path d="M0 0 C0.66 0.33 1.32 0.66 2 1 C1.67 3.31 1.34 5.62 1 8 C0.67 7.34 0.34 6.68 0 6 C-1.32 6.33 -2.64 6.66 -4 7 C-3.67 5.02 -3.34 3.04 -3 1 C-2.01 0.67 -1.02 0.34 0 0 Z " fill="#272D33" transform="translate(173,284)"/>
<path d="M0 0 C1.1796875 1.640625 1.1796875 1.640625 2 4 C0.8828125 6.796875 0.8828125 6.796875 -0.875 9.75 C-1.44992188 10.73484375 -2.02484375 11.7196875 -2.6171875 12.734375 C-3.07351562 13.48203125 -3.52984375 14.2296875 -4 15 C-4.66 13.68 -5.32 12.36 -6 11 C-5.195625 10.113125 -4.39125 9.22625 -3.5625 8.3125 C-1.2960841 5.61712968 -0.31582634 3.57936522 0 0 Z " fill="#C1876C" transform="translate(226,141)"/>
<path d="M0 0 C0.33 1.32 0.66 2.64 1 4 C-0.98 4.33 -2.96 4.66 -5 5 C-5 4.34 -5 3.68 -5 3 C-5.99 2.67 -6.98 2.34 -8 2 C-4.77208445 -0.1519437 -3.71599191 -0.20086443 0 0 Z " fill="#222325" transform="translate(337,420)"/>
<path d="M0 0 C2 2 2 2 2.3125 4.9375 C2 8 2 8 0.5 9.875 C-0.2425 10.431875 -0.2425 10.431875 -1 11 C-2.0257259 6.58937864 -2.03684712 4.07369424 0 0 Z " fill="#12191E" transform="translate(201,137)"/>
<path d="M0 0 C0.598125 0.20625 1.19625 0.4125 1.8125 0.625 C0.8125 3.625 0.8125 3.625 -1.25 4.8125 C-1.889375 5.080625 -2.52875 5.34875 -3.1875 5.625 C-3.8475 4.965 -4.5075 4.305 -5.1875 3.625 C-5.1875 2.965 -5.1875 2.305 -5.1875 1.625 C-2.1875 -0.375 -2.1875 -0.375 0 0 Z " fill="#282527" transform="translate(311.1875,411.375)"/>
<path d="M0 0 C1.32 0.33 2.64 0.66 4 1 C3.34 2.65 2.68 4.3 2 6 C1.34 5.67 0.68 5.34 0 5 C-0.66 6.32 -1.32 7.64 -2 9 C-2.25 3.375 -2.25 3.375 0 0 Z " fill="#15191E" transform="translate(223,153)"/>
<path d="M0 0 C2 2 2 2 2.125 4.625 C2.08375 5.40875 2.0425 6.1925 2 7 C1.34 7 0.68 7 0 7 C-0.33 7.66 -0.66 8.32 -1 9 C-1.625 5.625 -1.625 5.625 -2 2 C-1.34 1.34 -0.68 0.68 0 0 Z " fill="#151B1F" transform="translate(431,264)"/>
<path d="M0 0 C3.5 -0.375 3.5 -0.375 7 0 C7.66 0.99 8.32 1.98 9 3 C5.37 3 1.74 3 -2 3 C-1.34 2.01 -0.68 1.02 0 0 Z " fill="#11181A" transform="translate(277,231)"/>
<path d="M0 0 C2.3828125 -0.29296875 2.3828125 -0.29296875 5.125 -0.1875 C6.03507812 -0.16042969 6.94515625 -0.13335937 7.8828125 -0.10546875 C8.58148438 -0.07066406 9.28015625 -0.03585938 10 0 C10 0.33 10 0.66 10 1 C8.8553125 1.185625 8.8553125 1.185625 7.6875 1.375 C4.79732864 1.88102792 4.79732864 1.88102792 2 4 C-0.1875 3.625 -0.1875 3.625 -2 3 C-1.34 2.01 -0.68 1.02 0 0 Z " fill="#252427" transform="translate(273,230)"/>
<path d="M0 0 C0.33 0.99 0.66 1.98 1 3 C-0.98 3.33 -2.96 3.66 -5 4 C-5 3.34 -5 2.68 -5 2 C-6.32 1.67 -7.64 1.34 -9 1 C-5.92677456 0.08941469 -3.19902639 -0.08886184 0 0 Z " fill="#13191F" transform="translate(252,179)"/>
<path d="M0 0 C0.66 0 1.32 0 2 0 C2.33 2.31 2.66 4.62 3 7 C1.35 7.33 -0.3 7.66 -2 8 C-2 6.35 -2 4.7 -2 3 C-1.34 3 -0.68 3 0 3 C0 2.01 0 1.02 0 0 Z " fill="#2F3033" transform="translate(316,166)"/>
<path d="M0 0 C1.0625 1.875 1.0625 1.875 2 4 C1.67 4.66 1.34 5.32 1 6 C0.01 6 -0.98 6 -2 6 C-2.33 6.66 -2.66 7.32 -3 8 C-3.66 7.67 -4.32 7.34 -5 7 C-3.75023244 3.34683329 -3.32901247 2.21934164 0 0 Z " fill="#1F2226" transform="translate(338,132)"/>
<path d="M0 0 C1.65 0 3.3 0 5 0 C5 0.99 5 1.98 5 3 C2.69 3.33 0.38 3.66 -2 4 C-1.34 2.68 -0.68 1.36 0 0 Z " fill="#151A1F" transform="translate(392,373)"/>
<path d="M0 0 C1.2065625 0.0309375 1.2065625 0.0309375 2.4375 0.0625 C2.4375 1.0525 2.4375 2.0425 2.4375 3.0625 C-1.6152516 4.04498524 -5.40111737 4.14409574 -9.5625 4.0625 C-9.5625 3.7325 -9.5625 3.4025 -9.5625 3.0625 C-8.1084375 2.5984375 -8.1084375 2.5984375 -6.625 2.125 C-0.53780864 0.01311728 -0.53780864 0.01311728 0 0 Z " fill="#292B31" transform="translate(366.5625,424.9375)"/>
<path d="M0 0 C0.66 0.99 1.32 1.98 2 3 C-0.97 5.475 -0.97 5.475 -4 8 C-4.33 7.34 -4.66 6.68 -5 6 C-3.35 4.02 -1.7 2.04 0 0 Z " fill="#24292D" transform="translate(330,147)"/>
<path d="M0 0 C0.33 0 0.66 0 1 0 C1.33 4.29 1.66 8.58 2 13 C1.01 13 0.02 13 -1 13 C-0.67 8.71 -0.34 4.42 0 0 Z " fill="#0E1418" transform="translate(190,125)"/>
<path d="M0 0 C-0.33 1.65 -0.66 3.3 -1 5 C-1.66 5 -2.32 5 -3 5 C-3.66 5.66 -4.32 6.32 -5 7 C-4.625 4.0625 -4.625 4.0625 -4 1 C-2 0 -2 0 0 0 Z " fill="#151B1F" transform="translate(176,280)"/>
<path d="M0 0 C1.65 0 3.3 0 5 0 C4.67 1.65 4.34 3.3 4 5 C2.33333333 5 0.66666667 5 -1 5 C-0.67 3.35 -0.34 1.7 0 0 Z " fill="#2B2829" transform="translate(318,127)"/>
<path d="M0 0 C2.475 0.495 2.475 0.495 5 1 C4.67 2.65 4.34 4.3 4 6 C3.34 5.67 2.68 5.34 2 5 C2 4.34 2 3.68 2 3 C1.34 3 0.68 3 0 3 C0 2.01 0 1.02 0 0 Z " fill="#20272B" transform="translate(316,178)"/>
<path d="M0 0 C1.32 0 2.64 0 4 0 C4 1.32 4 2.64 4 4 C2.35 4.66 0.7 5.32 -1 6 C-0.67 4.02 -0.34 2.04 0 0 Z " fill="#242325" transform="translate(326,118)"/>
<path d="M0 0 C0.625 1.8125 0.625 1.8125 1 4 C-1 7 -1 7 -3 8 C-2.25 2.25 -2.25 2.25 0 0 Z " fill="#19222D" transform="translate(371,323)"/>
<path d="M0 0 C0.33 0.66 0.66 1.32 1 2 C1.66 2 2.32 2 3 2 C3.33 3.65 3.66 5.3 4 7 C3.67 6.34 3.34 5.68 3 5 C1.68 5.33 0.36 5.66 -1 6 C-0.67 4.02 -0.34 2.04 0 0 Z " fill="#30373D" transform="translate(167,295)"/>
<path d="M0 0 C2.125 0.9375 2.125 0.9375 4 2 C4 2.66 4 3.32 4 4 C2.35 4.33 0.7 4.66 -1 5 C-1.33 3.68 -1.66 2.36 -2 1 C-1.34 0.67 -0.68 0.34 0 0 Z " fill="#1D242B" transform="translate(369,203)"/>
<path d="M0 0 C1.65 0.33 3.3 0.66 5 1 C4.01 1.495 4.01 1.495 3 2 C3 2.66 3 3.32 3 4 C0.03 3.505 0.03 3.505 -3 3 C-2.01 2.67 -1.02 2.34 0 2 C0 1.34 0 0.68 0 0 Z " fill="#131A1E" transform="translate(337,193)"/>
<path d="M0 0 C1.9375 0.375 1.9375 0.375 4 1 C4.33 1.66 4.66 2.32 5 3 C3.35 3.33 1.7 3.66 0 4 C0 2.68 0 1.36 0 0 Z " fill="#131A1F" transform="translate(364,379)"/>
<path d="M0 0 C1.98 0.495 1.98 0.495 4 1 C4 2.32 4 3.64 4 5 C2.35 4.67 0.7 4.34 -1 4 C-0.67 2.68 -0.34 1.36 0 0 Z " fill="#262527" transform="translate(249,151)"/>
<path d="M0 0 C0.99 0.33 1.98 0.66 3 1 C3.33 2.65 3.66 4.3 4 6 C2.0625 5.6875 2.0625 5.6875 0 5 C-0.33 4.01 -0.66 3.02 -1 2 C-0.67 1.34 -0.34 0.68 0 0 Z " fill="#1A2024" transform="translate(190,136)"/>
</svg>