<?xml version="1.0" encoding="utf-8"?>
<svg height="512" version="1.1" width="512" xmlns="http://www.w3.org/2000/svg">
<path d="M0 0 C168.96 0 337.92 0 512 0 C512 168.96 512 337.92 512 512 C343.04 512 174.08 512 0 512 C0 343.04 0 174.08 0 0 Z " fill="#FEFEFE" transform="translate(0,0)"/>
<path d="M0 0 C5.32011198 4.44306454 5.32011198 4.44306454 7.1484375 7.84375 C9.2249849 10.96850673 11.09950388 11.67177368 14.53125 13.11328125 C24.11346262 17.67899172 27.95008157 23.669321 31.8359375 33.37109375 C35.28867892 44.07173863 34.99837808 56.44971419 31.4375 67.06640625 C30.5933813 69.55230375 30.5933813 69.55230375 30.78125 73.30078125 C32.40464805 75.0096213 34.07444053 76.67524842 35.78125 78.30078125 C39.39532898 83.72189973 38.2890203 91.08059505 37.78125 97.30078125 C35.63780025 106.31301316 30.31592282 114.99003997 22.78515625 120.42578125 C19.86787605 121.6996034 16.92501111 121.94106603 13.78125 122.30078125 C14.96788431 138.08719561 14.96788431 138.08719561 20.78125 152.30078125 C22.81237474 153.5204453 22.81237474 153.5204453 25.21484375 154.33203125 C26.1080835 154.66203125 27.00132324 154.99203125 27.92163086 155.33203125 C32.67426881 156.94207713 37.46436598 158.39612399 42.28125 159.80078125 C48.7670839 161.69212296 55.07724819 163.72297637 61.32470703 166.30078125 C63.80658894 167.31109613 66.30596196 168.24460285 68.82421875 169.16015625 C90.45773867 177.07298344 111.6188545 186.62477186 122.26928711 208.44384766 C130.25804467 225.86591785 133.54526837 244.86494978 136.51611328 263.65844727 C136.90434149 266.10127245 137.30544403 268.54176206 137.70703125 270.98242188 C139.38648104 281.41855278 140.37297617 291.73902524 140.78125 302.30078125 C139.79125 302.63078125 138.80125 302.96078125 137.78125 303.30078125 C137.81154297 303.94176758 137.84183594 304.58275391 137.87304688 305.24316406 C140.94361347 372.01617769 140.94361347 372.01617769 130.02734375 385.4609375 C121.08010836 393.97436754 108.54035546 396.38807605 96.53125 396.42578125 C95.29375 396.38453125 94.05625 396.34328125 92.78125 396.30078125 C93.11125 397.18765625 93.44125 398.07453125 93.78125 398.98828125 C94.70260807 402.04027987 95.13074702 404.15530805 94.78125 407.30078125 C92.215801 409.86623025 91.23975476 409.55581235 87.67651367 409.57202148 C86.61168259 409.5822081 85.5468515 409.59239471 84.44975281 409.60289001 C82.71698845 409.60610008 82.71698845 409.60610008 80.94921875 409.609375 C78.51757576 409.63453795 76.08593519 409.65993593 73.65429688 409.68554688 C69.80949545 409.71429259 65.96473619 409.73830085 62.11987305 409.75708008 C58.41692928 409.77872081 54.71448884 409.8181659 51.01171875 409.859375 C49.8626152 409.85949081 48.71351166 409.85960663 47.52958679 409.85972595 C46.45529922 409.87306473 45.38101166 409.8864035 44.27416992 409.90014648 C43.33200119 409.90521713 42.38983246 409.91028778 41.41911316 409.91551208 C38.28156396 410.37376215 36.43547479 411.6105193 33.78125 413.30078125 C31.00733193 413.87052791 28.33110404 414.31588396 25.53125 414.67578125 C17.76600623 415.78651757 10.092489 417.17278478 2.40625 418.73828125 C0.80934326 419.05744507 0.80934326 419.05744507 -0.81982422 419.38305664 C-5.7380541 420.36976857 -10.6425611 421.38739415 -15.53125 422.51171875 C-38.25407712 427.57409132 -61.27284786 425.26509481 -84.29003906 423.57861328 C-90.86703101 423.11349914 -97.44817656 422.7296958 -104.03125 422.36328125 C-104.72919678 422.32415619 -105.42714355 422.28503113 -106.14624023 422.24472046 C-117.59679807 421.60831071 -129.05173011 421.0684784 -140.5078125 420.54296875 C-141.22817625 420.50989813 -141.94854 420.47682751 -142.69073296 420.44275475 C-150.01465681 420.10687619 -157.33870115 419.77391867 -164.66309738 419.44849396 C-167.44585728 419.32456378 -170.22854603 419.19907966 -173.01122665 419.07338333 C-174.92580227 418.98752711 -176.84047846 418.90392265 -178.75515747 418.82040405 C-185.6169228 418.5101087 -192.45294101 418.06701929 -199.29948425 417.51722717 C-203.08230439 417.23675391 -206.84434859 417.10778595 -210.63671875 417.01953125 C-212.08919437 416.98183487 -213.54166829 416.94407276 -214.99414062 416.90625 C-217.22368241 416.85217946 -219.45325101 416.79970262 -221.68286133 416.74853516 C-223.87593315 416.6969891 -226.06880343 416.63980151 -228.26171875 416.58203125 C-229.55102295 416.55173828 -230.84032715 416.52144531 -232.16870117 416.49023438 C-235.21875 416.30078125 -235.21875 416.30078125 -237.21875 415.30078125 C-237.21875 414.64078125 -237.21875 413.98078125 -237.21875 413.30078125 C-238.085 412.99140625 -238.085 412.99140625 -238.96875 412.67578125 C-243.05210878 410.18039533 -244.87710809 406.39656606 -246.2734375 401.91796875 C-246.54414063 400.68304688 -246.81484375 399.448125 -247.09375 398.17578125 C-248.52759723 391.94618813 -250.20782157 385.84593214 -252.09375 379.73828125 C-254.30485078 372.53113731 -256.296631 365.29375056 -258.15625 357.98828125 C-260.14486707 350.19025783 -262.32829385 342.48504452 -264.71875 334.80078125 C-267.40242386 326.17395226 -269.788571 317.50760426 -272.00634766 308.75 C-273.89005445 301.37267766 -276.02992063 294.09572636 -278.39086914 286.85668945 C-279.84409004 282.2430184 -280.93418883 278.17983952 -280.21875 273.30078125 C-277.69913741 270.13016793 -276.21774335 268.49021814 -272.18353271 267.72521973 C-271.03725403 267.74822144 -269.89097534 267.77122314 -268.70996094 267.79492188 C-268.06276344 267.80060684 -267.41556595 267.80629181 -266.74875641 267.81214905 C-264.56584828 267.83693113 -262.38533865 267.89740341 -260.203125 267.95703125 C-258.61997028 267.98136337 -257.03677449 268.00313449 -255.45355225 268.02258301 C-251.95463097 268.06896072 -248.45630483 268.12946665 -244.95776367 268.19873047 C-238.90503987 268.31356506 -232.85241498 268.3678271 -226.79882812 268.4140625 C-217.91652201 268.48356663 -209.03442891 268.5624327 -200.15234375 268.65625 C-198.47283253 268.67395447 -198.47283253 268.67395447 -196.75939178 268.6920166 C-194.48194836 268.71607904 -192.20450543 268.74018814 -189.92706299 268.76434326 C-184.07248305 268.82602915 -178.21788123 268.88556523 -172.36328125 268.9453125 C-160.98174916 269.06176481 -149.60024216 269.18049362 -138.21875 269.30078125 C-137.95197952 268.22082886 -137.68520905 267.14087646 -137.41035461 266.02819824 C-137.05269338 264.5871406 -136.69495725 263.14610155 -136.3371582 261.70507812 C-136.07479748 260.6416922 -136.07479748 260.6416922 -135.80713654 259.55682373 C-125.34009717 217.47405076 -125.34009717 217.47405076 -112.21875 203.30078125 C-111.58710938 202.57890625 -110.95546875 201.85703125 -110.3046875 201.11328125 C-98.03870807 187.88256186 -81.08153878 180.28489311 -65.21875 172.30078125 C-66.03722412 171.93299561 -66.85569824 171.56520996 -67.69897461 171.1862793 C-83.4314555 163.99606981 -92.42561692 152.63945228 -98.95703125 136.90234375 C-100.18717999 133.3908975 -100.96384878 130.01412404 -101.65625 126.36328125 C-102.76221744 120.93815102 -104.32120598 118.63603064 -108.44140625 115.08203125 C-114.45951378 109.05069711 -115.87298258 100.26644714 -116.859375 92.1484375 C-117.15797321 89.78237122 -117.57814149 87.59261344 -118.21875 85.30078125 C-114.7835452 83.01064472 -113.233419 83.12235152 -109.21875 83.30078125 C-109.4353125 82.18509766 -109.4353125 82.18509766 -109.65625 81.046875 C-111.62382496 69.47370842 -111.41539 58.00539925 -111.21875 46.30078125 C-111.9907373 46.17405029 -112.76272461 46.04731934 -113.55810547 45.91674805 C-117.04329968 45.10988945 -118.71469033 43.5132027 -121.34375 41.11328125 C-122.19195312 40.35660156 -123.04015625 39.59992188 -123.9140625 38.8203125 C-127.21887988 35.20741893 -129.06087182 31.94271436 -129.53125 27.05078125 C-129.21875 24.30078125 -129.21875 24.30078125 -127.21875 22.30078125 C-125.09375 21.67578125 -125.09375 21.67578125 -123.21875 21.30078125 C-123.54875 20.64078125 -123.87875 19.98078125 -124.21875 19.30078125 C-124.40625 16.30078125 -124.40625 16.30078125 -124.21875 13.30078125 C-121.63642816 10.71845941 -120.53526695 11.06826792 -116.9453125 10.96484375 C-109.64265481 10.46203781 -103.39984828 8.25451271 -96.59375 5.67578125 C-95.37260498 5.2264624 -94.15145996 4.77714355 -92.89331055 4.31420898 C-85.22618694 1.47904694 -77.57857437 -1.41911453 -69.98779297 -4.45361328 C-47.59741634 -13.38831613 -20.15053011 -15.43218415 0 0 Z " fill="#1C2126" transform="translate(303.21875,34.69921875)"/>
<path d="M0 0 C9.65052259 2.14296254 18.92708371 5.18583715 28.26171875 8.39599609 C30.72890142 9.24275875 33.20010555 10.07689268 35.671875 10.91015625 C58.15171658 18.55956821 82.70347934 27.40695868 94 50 C102.32324131 68.39204498 105.47853414 88.22764076 108.75 108 C108.96092285 109.26295898 109.1718457 110.52591797 109.38916016 111.82714844 C110.77990554 120.55495989 111.55280961 129.18128047 112 138 C111.38165283 137.84619873 110.76330566 137.69239746 110.1262207 137.53393555 C90.25869064 132.82183401 70.50654429 136.28681854 52 144 C50.33397318 144.66826406 48.66740302 145.33517716 47 146 C46.71334473 144.35523682 46.71334473 144.35523682 46.42089844 142.67724609 C41.30790471 113.32123898 41.30790471 113.32123898 36 84 C35.34 84 34.68 84 34 84 C33.84091732 89.41149241 34.42354798 94.37730771 35.390625 99.6953125 C35.60775398 100.92880936 35.60775398 100.92880936 35.82926941 102.18722534 C36.29691753 104.83424252 36.77321611 107.47961455 37.25 110.125 C37.57207514 111.93613053 37.89377047 113.74732864 38.21508789 115.55859375 C40.38023235 127.72391814 42.60808862 139.87702057 45 152 C45.99 152.33 46.98 152.66 48 153 C48.51139597 156.14408784 49.00696036 159.29048573 49.5 162.4375 C49.64308594 163.31599609 49.78617188 164.19449219 49.93359375 165.09960938 C50.06894531 165.97294922 50.20429688 166.84628906 50.34375 167.74609375 C50.46943359 168.53685303 50.59511719 169.3276123 50.72460938 170.14233398 C51.10580638 174.09792878 51.05134779 178.02941001 51 182 C44.72334875 183.86466808 38.44245713 185.71448373 32.15844727 187.55419922 C30.02268412 188.18134592 27.8879022 188.81184461 25.75415039 189.44580078 C22.6810898 190.35819398 19.60466361 191.25834255 16.52734375 192.15625 C15.10505714 192.5827887 15.10505714 192.5827887 13.65403748 193.01794434 C6.0246177 195.22329316 0.25759431 195.82797734 -7.30859375 192.8828125 C-8.46810547 192.44066406 -9.62761719 191.99851562 -10.82226562 191.54296875 C-12.61180664 190.84107422 -12.61180664 190.84107422 -14.4375 190.125 C-33.83124459 182.41358257 -33.83124459 182.41358257 -54.28515625 184.02734375 C-61.59713304 187.43330971 -67.31567455 192.34082643 -73 198 C-75.20665798 194.69001304 -76.09804875 191.54799026 -77.10717773 187.76220703 C-77.30747589 187.02852905 -77.50777405 186.29485107 -77.71414185 185.53894043 C-78.14810904 183.94685801 -78.57959068 182.35409648 -79.00887871 180.760746 C-79.68913613 178.23725239 -80.37653401 175.71580407 -81.06593323 173.1947937 C-83.02450737 166.02696765 -84.96891758 158.85531276 -86.91137695 151.68310547 C-88.10039928 147.29479688 -89.29678032 142.9085457 -90.49742317 138.52340317 C-91.17404966 136.04280239 -91.84189183 133.5599408 -92.5096283 131.07693481 C-92.9270875 129.5500209 -93.34499689 128.02322997 -93.76342773 126.49658203 C-94.03708412 125.46463211 -94.03708412 125.46463211 -94.31626892 124.41183472 C-95.7324265 119.30202909 -97.12063462 115.25291025 -101.625 112.25 C-105.75230721 110.7213677 -109.63075583 110.28157351 -114 110 C-114.4375 108.10416667 -114.875 106.20833333 -115.3125 104.3125 C-115.58707031 103.13816406 -115.86164063 101.96382813 -116.14453125 100.75390625 C-116.71107887 98.26782284 -117.25057268 95.77540632 -117.76171875 93.27734375 C-118.00535156 92.11332031 -118.24898437 90.94929688 -118.5 89.75 C-118.7165625 88.67234375 -118.933125 87.5946875 -119.15625 86.484375 C-119.4346875 85.66453125 -119.713125 84.8446875 -120 84 C-120.99 83.67 -121.98 83.34 -123 83 C-121.35 91.91 -119.7 100.82 -118 110 C-130.87 110 -143.74 110 -157 110 C-155.33753899 101.68769493 -153.32371413 93.93063042 -150.8125 85.875 C-150.61335999 85.23614868 -150.41421997 84.59729736 -150.20904541 83.93908691 C-141.5598588 56.33324064 -141.5598588 56.33324064 -132 46 C-131.45730469 45.39027344 -130.91460937 44.78054687 -130.35546875 44.15234375 C-119.43679774 32.51769431 -103.87886977 25.02731395 -89.5 18.5625 C-88.77103516 18.23258057 -88.04207031 17.90266113 -87.29101562 17.56274414 C-82.59369287 15.50793404 -78.00382425 14.12135251 -73 13 C-72.78085938 13.9178125 -72.56171875 14.835625 -72.3359375 15.78125 C-70.05680711 24.60129931 -67.6765734 32.35692448 -59.625 37.5 C-51.81451844 40.85805733 -41.09829388 40.04600263 -33.1875 37.5 C-16.1670761 30.15085145 -7.92432784 15.80547133 0 0 Z " fill="#42578D" transform="translate(327,194)"/>
<path d="M0 0 C36.7984694 -0.06534324 73.59665616 -0.07036337 110.39513397 -0.00595093 C113.85263515 -0.00024327 117.31013588 0.00432636 120.76763916 0.00854492 C132.40117835 0.02407871 144.0340133 0.06524435 155.66723633 0.15359497 C159.08949516 0.17873218 162.51148961 0.19210142 165.93383789 0.19528198 C169.90374809 0.19944326 173.87277933 0.22683708 177.84241295 0.27336884 C179.27016832 0.28622247 180.69802772 0.290779 182.12583351 0.28617096 C184.04987004 0.28131376 185.97390464 0.31004748 187.89770508 0.34057617 C189.49706657 0.35056892 189.49706657 0.35056892 191.1287384 0.36076355 C195.10429267 1.24585155 196.5138726 2.8093268 199 6 C199.99774691 8.47296268 200.73711587 10.66715634 201.38427734 13.22338867 C201.57858841 13.93338013 201.77289948 14.64337158 201.97309875 15.37487793 C202.61021737 17.71854903 203.22305762 20.06785369 203.8359375 22.41796875 C204.28136433 24.07529444 204.72830257 25.73221458 205.17666626 27.38874817 C206.3561823 31.7626191 207.51527866 36.14165011 208.67010498 40.52209473 C209.82275358 44.88058156 210.99406695 49.23403488 212.1640625 53.58789062 C214.18436351 61.11602682 216.19060205 68.64780887 218.18949413 76.18165493 C223.6712047 96.91253368 223.6712047 96.91253368 229.43359375 117.56640625 C229.77197266 118.75041016 230.11035156 119.93441406 230.45898438 121.15429688 C231.13102775 123.49504674 231.81115735 125.83348549 232.49804688 128.16992188 C234.34281418 134.67895406 235.41166944 140.23273212 235 147 C231.08430116 147.95361817 227.64743185 148.03020722 223.63012695 147.80981445 C222.34497696 147.74241562 221.05982697 147.67501678 219.73573303 147.60557556 C218.31990928 147.52492463 216.90409223 147.44415599 215.48828125 147.36328125 C213.99424651 147.28257717 212.50018123 147.20243679 211.00608826 147.12281799 C206.95431582 146.90535132 202.90300583 146.6801473 198.85173035 146.45363617 C194.58597711 146.21653595 190.31982831 145.98678618 186.05371094 145.75634766 C178.93810447 145.37111045 171.82273283 144.98178536 164.70751953 144.58935547 C152.81580249 143.93360469 140.92350176 143.28881005 129.03100586 142.64735413 C127.42545523 142.56072904 125.8199051 142.47409477 124.21435547 142.38745117 C123.42757793 142.3450018 122.6408004 142.30255243 121.83018112 142.25881672 C117.1309048 142.00488062 112.43181224 141.74781068 107.73285294 141.48807621 C94.04201292 140.73140935 80.35392946 139.98405595 66.65234375 139.4453125 C64.73534694 139.36616013 62.81835451 139.28690139 60.90136719 139.20751953 C57.565068 139.07014251 54.22927595 138.95638731 50.89160156 138.85888672 C49.4732728 138.80262059 48.05497537 138.74555599 46.63671875 138.6875 C45.45811279 138.65011719 44.27950684 138.61273438 43.06518555 138.57421875 C39.25118876 137.8597209 37.64994028 136.82723928 35 134 C33.63549805 130.88500977 33.63549805 130.88500977 32.57421875 127.12890625 C32.37221359 126.43205215 32.17020844 125.73519806 31.96208191 125.01722717 C31.29052149 122.68275978 30.6451519 120.3418914 30 118 C29.52947676 116.34060844 29.05759877 114.68160052 28.58447266 113.02294922 C26.96972134 107.3344498 25.390411 101.63630874 23.8125 95.9375 C19.84596934 81.62399632 15.82527303 67.33030486 11.6510067 53.07610893 C10.38444924 48.74622758 9.12576589 44.41404703 7.8662653 40.0821085 C6.6310808 35.83847787 5.38187085 31.59927947 4.12305164 27.36260414 C3.5278006 25.35003896 2.93984077 23.33551452 2.35505676 21.31988525 C1.63579279 18.84120989 0.90476863 16.36590695 0.16020203 13.89471436 C-0.15563339 12.79339172 -0.47146881 11.69206909 -0.796875 10.55737305 C-1.07885742 9.60009811 -1.36083984 8.64282318 -1.65136719 7.65653992 C-2.0652606 4.50272213 -1.40450275 2.81197539 0 0 Z " fill="#303B46" transform="translate(29,308)"/>
<path d="M0 0 C3.06303578 -0.08115993 6.12390815 -0.14057409 9.1875 -0.1875 C10.48397461 -0.22520508 10.48397461 -0.22520508 11.80664062 -0.26367188 C16.93586759 -0.32262851 19.64801781 0.11828207 24 3 C27.34498399 3.57154439 27.34498399 3.57154439 30.8125 3.6875 C31.97394531 3.75324219 33.13539063 3.81898437 34.33203125 3.88671875 C35.21246094 3.92410156 36.09289062 3.96148437 37 4 C35 7 35 7 33.0546875 7.51171875 C32.33539063 7.56972656 31.61609375 7.62773438 30.875 7.6875 C29.59625 7.790625 28.3175 7.89375 27 8 C27.02320313 8.92941406 27.04640625 9.85882813 27.0703125 10.81640625 C27.29836584 26.43806009 27.29836584 26.43806009 23.296875 30.8984375 C17.91290973 35.93306151 13.42326326 38.11228465 6 38 C9.78152467 54.28280036 15.26163442 69.14827758 30.125 78.5 C40.32018527 84.40428238 53.43337144 84.76923257 64.7421875 82.125 C78.30689646 77.18054973 90.17170861 68.39134373 99 57 C100.32 57.33 101.64 57.66 103 58 C96.55132147 72.04700341 80.59953909 81.23915614 66.8125 86.5 C63.93119959 87.50219145 62.07131698 88 59 88 C60.1729588 96.54334169 62.2509646 102.80933158 68.9375 108.5 C75.64638457 111.80306133 84.87861951 110.90346448 91.875 108.875 C95.84012784 107.33629367 99.01081735 105.003398 102.2734375 102.3046875 C104 101 104 101 107 100 C108.06312246 98.12413977 108.06312246 98.12413977 109 96 C109.87407841 94.8580152 110.77179293 93.73388363 111.6875 92.625 C115.98386066 86.87861762 119.95602088 80.91322667 122 74 C121.23089846 70.95758727 120.1906831 69.20748149 118.2421875 66.76953125 C117.62730469 65.89361328 117.62730469 65.89361328 117 65 C117.33 64.01 117.66 63.02 118 62 C118.33 62.66 118.66 63.32 119 64 C120.485 63.505 120.485 63.505 122 63 C122.433125 64.37091797 122.433125 64.37091797 122.875 65.76953125 C125.98261077 70.49378513 129.72906269 71.15232415 135 72.6875 C135.95173096 72.98438721 136.90346191 73.28127441 137.8840332 73.5871582 C143.37660425 75.28364901 148.90291355 76.84519932 154.47143555 78.27319336 C156.95607901 78.98737542 159.2755532 79.86152692 161.6640625 80.84765625 C165.10409099 82.24672609 168.55323742 83.58930156 172.04296875 84.859375 C193.67648867 92.77220219 214.8376045 102.32399061 225.48803711 124.14306641 C233.47679467 141.5651366 236.76401837 160.56416853 239.73486328 179.35766602 C240.12309149 181.8004912 240.52419403 184.24098081 240.92578125 186.68164062 C242.60523104 197.11777153 243.59172617 207.43824399 244 218 C243.01 218.33 242.02 218.66 241 219 C241.03029297 219.64098633 241.06058594 220.28197266 241.09179688 220.94238281 C244.16236347 287.71539644 244.16236347 287.71539644 233.24609375 301.16015625 C224.29885836 309.67358629 211.75910546 312.0872948 199.75 312.125 C198.5125 312.08375 197.275 312.0425 196 312 C196.33 312.886875 196.66 313.77375 197 314.6875 C197.92135807 317.73949862 198.34949702 319.8545268 198 323 C195.434551 325.565449 194.45850476 325.2550311 190.89526367 325.27124023 C189.83043259 325.28142685 188.7656015 325.29161346 187.66850281 325.30210876 C185.93573845 325.30531883 185.93573845 325.30531883 184.16796875 325.30859375 C181.73632576 325.3337567 179.30468519 325.35915468 176.87304688 325.38476562 C173.02824545 325.41351134 169.18348619 325.4375196 165.33862305 325.45629883 C161.63567928 325.47793956 157.93323884 325.51738465 154.23046875 325.55859375 C153.0813652 325.55870956 151.93226166 325.55882538 150.74833679 325.5589447 C149.67404922 325.57228348 148.59976166 325.58562225 147.49291992 325.59936523 C146.55075119 325.60443588 145.60858246 325.60950653 144.63786316 325.61473083 C141.50031396 326.0729809 139.65422479 327.30973805 137 329 C134.22608193 329.56974666 131.54985404 330.01510271 128.75 330.375 C120.98475623 331.48573632 113.311239 332.87200353 105.625 334.4375 C104.02809326 334.75666382 104.02809326 334.75666382 102.39892578 335.08227539 C97.4806959 336.06898732 92.5761889 337.0866129 87.6875 338.2109375 C64.96467288 343.27331007 41.94590214 340.96431356 18.92871094 339.27783203 C12.35171899 338.81271789 5.77057344 338.42891455 -0.8125 338.0625 C-1.51044678 338.02337494 -2.20839355 337.98424988 -2.92749023 337.94393921 C-14.37804807 337.30752946 -25.83298011 336.76769715 -37.2890625 336.2421875 C-38.00942625 336.20911688 -38.72979 336.17604626 -39.47198296 336.1419735 C-46.79590681 335.80609494 -54.11995115 335.47313742 -61.44434738 335.14771271 C-64.22710728 335.02378253 -67.00979603 334.89829841 -69.79247665 334.77260208 C-71.70705227 334.68674586 -73.62172846 334.6031414 -75.53640747 334.5196228 C-82.3981728 334.20932745 -89.23419101 333.76623804 -96.08073425 333.21644592 C-99.86355439 332.93597266 -103.62559859 332.8070047 -107.41796875 332.71875 C-108.87044437 332.68105362 -110.32291829 332.64329151 -111.77539062 332.60546875 C-114.00493241 332.55139821 -116.23450101 332.49892137 -118.46411133 332.44775391 C-120.65718315 332.39620785 -122.85005343 332.33902026 -125.04296875 332.28125 C-126.33227295 332.25095703 -127.62157715 332.22066406 -128.94995117 332.18945312 C-132 332 -132 332 -134 331 C-134 330.34 -134 329.68 -134 329 C-134.86625 328.690625 -134.86625 328.690625 -135.75 328.375 C-139.83335878 325.87961408 -141.65835809 322.09578481 -143.0546875 317.6171875 C-143.32539063 316.38226563 -143.59609375 315.14734375 -143.875 313.875 C-145.30884723 307.64540688 -146.98907157 301.54515089 -148.875 295.4375 C-151.08610078 288.23035606 -153.077881 280.99296931 -154.9375 273.6875 C-156.92611707 265.88947658 -159.10954385 258.18426327 -161.5 250.5 C-164.18367386 241.87317101 -166.569821 233.20682301 -168.78759766 224.44921875 C-170.67130445 217.07189641 -172.81117063 209.79494511 -175.17211914 202.5559082 C-176.62534004 197.94223715 -177.71543883 193.87905827 -177 189 C-174.48038741 185.82938668 -172.99899335 184.18943689 -168.96478271 183.42443848 C-167.81850403 183.44744019 -166.67222534 183.47044189 -165.49121094 183.49414062 C-164.84401344 183.49982559 -164.19681595 183.50551056 -163.53000641 183.5113678 C-161.34709828 183.53614988 -159.16658865 183.59662216 -156.984375 183.65625 C-155.40122028 183.68058212 -153.81802449 183.70235324 -152.23480225 183.72180176 C-148.73588097 183.76817947 -145.23755483 183.8286854 -141.73901367 183.89794922 C-135.68628987 184.01278381 -129.63366498 184.06704585 -123.58007812 184.11328125 C-114.69777201 184.18278538 -105.81567891 184.26165145 -96.93359375 184.35546875 C-95.25408253 184.37317322 -95.25408253 184.37317322 -93.54064178 184.39123535 C-91.26319836 184.41529779 -88.98575543 184.43940689 -86.70831299 184.46356201 C-80.85373305 184.5252479 -74.99913123 184.58478398 -69.14453125 184.64453125 C-57.76299916 184.76098356 -46.38149216 184.87971237 -35 185 C-34.59984428 183.38007141 -34.59984428 183.38007141 -34.19160461 181.72741699 C-33.83394338 180.28635935 -33.47620725 178.8453203 -33.1184082 177.40429688 C-32.94350105 176.69537292 -32.7685939 175.98644897 -32.58838654 175.25604248 C-22.12134717 133.17326951 -22.12134717 133.17326951 -9 119 C-8.36835938 118.278125 -7.73671875 117.55625 -7.0859375 116.8125 C5.18004193 103.58178061 22.13721122 95.98411186 38 88 C36.77228882 87.44832153 36.77228882 87.44832153 35.51977539 86.88549805 C19.7872945 79.69528856 10.79313308 68.33867103 4.26171875 52.6015625 C3.03157001 49.09011625 2.25490122 45.71334279 1.5625 42.0625 C0.45660599 36.61860506 -1.15852329 34.23866121 -5.27734375 30.64453125 C-8.4655105 27.60095257 -10.07756852 24.28805986 -11 20 C-11.0200051 15.27879698 -10.61225296 10.67841123 -10 6 C-9.67 6 -9.34 6 -9 6 C-8.91363281 6.76183594 -8.82726562 7.52367188 -8.73828125 8.30859375 C-7.74064416 15.63985345 -5.95850634 20.74972684 -2 27 C-1.01 24.03 -0.02 21.06 1 18 C3.72106694 20.72106694 3.60655572 22.84776311 4.125 26.625 C4.29257813 27.81351563 4.46015625 29.00203125 4.6328125 30.2265625 C4.75398437 31.14179688 4.87515625 32.05703125 5 33 C10.86219559 33.4885163 15.21880393 32.58589705 20 29 C24.15009007 23.03424552 24.12081025 15.02492096 23 8 C18.72763811 3.68228395 13.56239336 3.7438262 7.8125 3.4375 C7.06291016 3.39431641 6.31332031 3.35113281 5.54101562 3.30664062 C3.69421625 3.20077315 1.84713166 3.0999024 0 3 C0 2.01 0 1.02 0 0 Z M127 75 C126.73896484 75.49290527 126.47792969 75.98581055 126.20898438 76.49365234 C117.66970093 92.51415565 109.42594313 107.32758839 91.12890625 113.33984375 C83.1931394 115.01418157 72.72137587 115.91508591 65.6015625 111.3671875 C58.20006451 105.04883556 56.19061983 97.17483128 54 88 C34.27531177 92.97858717 14.00487903 103.24552756 -1 117 C-1.639375 117.53625 -2.27875 118.0725 -2.9375 118.625 C-19.60072381 133.5028784 -25.00094713 162.19187339 -30 183 C-30 183.66 -30 184.32 -30 185 C-17.13 185 -4.26 185 9 185 C7.35 176.09 5.7 167.18 4 158 C4.99 158.33 5.98 158.66 7 159 C7.78369141 161.28491211 7.78369141 161.28491211 8.3515625 164.27734375 C8.56296875 165.34791016 8.774375 166.41847656 8.9921875 167.52148438 C9.20101562 168.64876953 9.40984375 169.77605469 9.625 170.9375 C10.05253986 173.155363 10.48212534 175.37283295 10.9140625 177.58984375 C11.1917749 179.07278931 11.1917749 179.07278931 11.47509766 180.58569336 C11.89501978 182.99585903 11.89501978 182.99585903 13 185 C15.96210882 185.57243207 18.92556914 185.89532451 21.921875 186.2421875 C25.66291536 187.16320505 27.25167417 188.29850516 30 191 C31.06154229 193.57238338 31.82751396 195.8476711 32.5078125 198.515625 C32.71522568 199.26787354 32.92263885 200.02012207 33.13633728 200.79516602 C33.81608892 203.27586711 34.47030222 205.76258122 35.125 208.25 C35.59514211 209.98062824 36.06709419 211.7107657 36.54077148 213.44042969 C37.53330263 217.07619118 38.51545406 220.71451618 39.48876953 224.35546875 C41.73977058 232.77538598 44.03577234 241.18295498 46.33709717 249.5892334 C47.05458301 252.22096061 47.76353087 254.85487386 48.47119141 257.48925781 C48.90899667 259.10226323 49.34697565 260.71522151 49.78515625 262.328125 C49.98052475 263.06385742 50.17589325 263.79958984 50.37718201 264.55761719 C51.26648145 267.80796466 52.11159944 270.16739915 54 273 C54.38929688 272.56429687 54.77859375 272.12859375 55.1796875 271.6796875 C61.48956465 264.9627215 69.81948771 258.71516281 79.20703125 257.62890625 C91.14399723 257.40904881 100.95002665 260.69646954 111.98828125 264.890625 C112.83229492 265.20894287 113.67630859 265.52726074 114.54589844 265.85522461 C116.18322655 266.4780383 117.81576748 267.11363699 119.44238281 267.76391602 C120.19487305 268.05451904 120.94736328 268.34512207 121.72265625 268.64453125 C122.38015869 268.90596924 123.03766113 269.16740723 123.71508789 269.43676758 C130.70287505 271.15926197 136.85762506 269.15647492 143.52734375 267.15625 C144.51626114 266.86770142 145.50517853 266.57915283 146.52406311 266.28186035 C149.66452857 265.36334634 152.80097996 264.43188731 155.9375 263.5 C158.07331538 262.87283796 160.20938071 262.24652648 162.34570312 261.62109375 C167.56673671 260.0905665 172.78454066 258.5494091 178 257 C178.0621635 252.19305938 178.10050649 247.50735334 177.34375 242.74609375 C177.20839844 241.87275391 177.07304687 240.99941406 176.93359375 240.09960938 C176.79050781 239.22111328 176.64742187 238.34261719 176.5 237.4375 C176.35691406 236.52419922 176.21382812 235.61089844 176.06640625 234.66992188 C175.71703202 232.44557264 175.36148178 230.2224079 175 228 C174.01 227.67 173.02 227.34 172 227 C168.95424082 210.99517431 165.94559645 194.98372093 163.125 178.9375 C162.80269409 177.13986206 162.80269409 177.13986206 162.47387695 175.3059082 C161.51718979 169.79695496 160.72396523 164.59376345 161 159 C161.66 159 162.32 159 163 159 C164.08453668 165.09738626 165.16892055 171.19479967 166.25317383 177.29223633 C166.62064671 179.35864972 166.98815853 181.42505618 167.35571289 183.49145508 C169.5793118 195.99275261 171.79769687 208.49493202 174 221 C176.62069869 219.95508146 179.23557914 218.90181502 181.83984375 217.81640625 C200.06774126 210.43790045 219.72262285 208.20514489 239 213 C238.49377546 201.96228007 237.12139123 191.25613233 235.25 180.375 C235.0497522 179.19544739 235.0497522 179.19544739 234.84545898 177.99206543 C228.87080965 137.59647823 228.87080965 137.59647823 205.45117188 105.86425781 C189.47472568 94.60934236 171.1067941 88.95297555 152.8125 82.625 C152.04779388 82.35979553 151.28308777 82.09459106 150.49520874 81.8213501 C142.74192986 79.14219354 135.08126896 76.51924196 127 75 Z M-171 189 C-172.97087784 192.98608387 -173.1119407 195.09219087 -171.86035156 199.33520508 C-171.55727081 200.3918486 -171.25419006 201.44849213 -170.94192505 202.53715515 C-170.42153152 204.26093132 -170.42153152 204.26093132 -169.890625 206.01953125 C-169.3475367 207.8907038 -168.80445116 209.76187716 -168.26146889 211.63308048 C-167.47341483 214.33339271 -166.67054479 217.02923133 -165.86869049 219.7254715 C-164.83239967 223.22119109 -163.81251573 226.72167683 -162.79248047 230.22216797 C-162.58597303 230.93073818 -162.3794656 231.6393084 -162.16670036 232.36935043 C-161.74432341 233.81867104 -161.32200315 235.26800817 -160.89973831 236.71736145 C-160.25204957 238.93772486 -159.60218102 241.15744166 -158.95199585 243.3770752 C-156.07147401 253.22539081 -153.27887972 263.09535872 -150.5506897 272.98692131 C-149.93483694 275.21961265 -149.31738352 277.45185539 -148.69946289 279.68397522 C-145.44793711 291.43479049 -145.44793711 291.43479049 -143.96936035 296.86196899 C-143.23355592 299.56221831 -142.4917192 302.26065149 -141.74246216 304.9571991 C-141.0646412 307.39711159 -140.39580547 309.83954558 -139.73776245 312.28486633 C-139.4351651 313.36471298 -139.13256775 314.44455963 -138.82080078 315.55712891 C-138.56420685 316.49295807 -138.30761292 317.42878723 -138.04324341 318.39297485 C-136.57067132 322.07287586 -134.60861892 325.19569054 -131 327 C-128.8890783 327.18101721 -126.77282844 327.30043889 -124.65625 327.39453125 C-123.97520203 327.42648087 -123.29415405 327.45843048 -122.59246826 327.49134827 C-121.06063081 327.56300511 -119.528702 327.63272629 -117.9967041 327.7008667 C-113.48165162 327.90274493 -108.9674339 328.12206403 -104.453125 328.33984375 C-103.42523865 328.38917053 -102.39735229 328.43849731 -101.33831787 328.48931885 C-87.86878468 329.14196556 -74.40407391 329.88515918 -60.93881226 330.61962891 C-56.22141327 330.87680018 -51.50390742 331.13197209 -46.78637695 331.38671875 C-32.38667046 332.1645953 -17.98708999 332.94435521 -3.58827019 333.7385025 C3.48939336 334.12855534 10.56729896 334.5140097 17.64538383 334.89633942 C21.88703362 335.1256635 26.12852991 335.3572902 30.36975098 335.59442139 C34.33829647 335.81628427 38.30711764 336.03228146 42.27622795 336.24379158 C43.73385564 336.32252904 45.19136761 336.40344334 46.64874458 336.48669243 C48.64221415 336.60024836 50.63616592 336.7052425 52.63012695 336.80981445 C53.74595657 336.87102982 54.86178619 336.93224518 56.01142883 336.99531555 C58.83767034 336.99974556 61.26186061 336.66683869 64 336 C64.30880706 328.91009736 63.26196974 323.05656236 61.33203125 316.25390625 C60.91699593 314.73892799 60.91699593 314.73892799 60.49357605 313.19334412 C59.61057363 309.97999907 58.71185452 306.77130213 57.8125 303.5625 C57.22746926 301.44364801 56.64347622 299.32450921 56.06054688 297.20507812 C53.98611309 289.67802151 51.88847922 282.15751249 49.77490234 274.64135742 C47.41278577 266.22005212 45.13801325 257.77742412 42.90046692 249.32225037 C41.54490315 244.20147941 40.17773217 239.08382342 38.8082552 233.96675777 C37.79443941 230.17563587 36.78720394 226.38297789 35.79296875 222.58666992 C34.81649919 218.85953709 33.82346341 215.13717911 32.81896973 211.41750526 C32.44303143 210.0137493 32.07304153 208.60838526 31.70935059 207.20140648 C31.20232256 205.24361478 30.67193165 203.29191904 30.140625 201.34057617 C29.84704102 200.23348801 29.55345703 199.12639984 29.25097656 197.98576355 C27.72108048 194.3342899 26.11850069 192.43446963 23 190 C20.09334189 189.24680052 20.09334189 189.24680052 16.89770508 189.34057617 C15.66018997 189.32093811 14.42267487 189.30130005 13.1476593 189.28106689 C11.77161528 189.28454069 10.39557249 189.28852777 9.01953125 189.29296875 C7.54422565 189.27968704 6.06893774 189.26430222 4.59367371 189.24700928 C0.52396936 189.20597734 -3.54528628 189.19669541 -7.61517334 189.19291306 C-11.06108388 189.18566168 -14.50674747 189.1598683 -17.95255852 189.13369846 C-29.82130465 189.04377799 -41.68990943 189.01896773 -53.55895233 189.00448608 C-57.14544385 188.99981039 -60.73193135 188.99382666 -64.31842041 188.98754883 C-99.87903174 188.92627946 -135.43940304 188.93685485 -171 189 Z " fill="#181E23" transform="translate(200,119)"/>
<path d="M0 0 C0.71522846 14.14478411 1.14086915 28.29270431 1.23217773 42.45495605 C1.24391812 44.00798422 1.26087808 45.56098305 1.28344727 47.1138916 C1.45064249 59.29083851 1.63746288 73.40281902 -7 83 C-18.61364836 93.96517053 -38.31977581 92.70709078 -52.9921875 92.3984375 C-67.75311821 91.83084844 -82.74367865 89.99502022 -97.06152344 86.33227539 C-101.09099526 85.64158129 -105.33700107 86.16850054 -109 88 C-116.45144476 88.76521571 -121.65108274 87.99746643 -128 84 C-128.33 83.34 -128.66 82.68 -129 82 C-128.175 81.54625 -127.35 81.0925 -126.5 80.625 C-125.675 80.08875 -124.85 79.5525 -124 79 C-124 78.34 -124 77.68 -124 77 C-126.92261237 77.59964357 -129.00076997 78.46670117 -131.4609375 80.14453125 C-132.09773438 80.57443359 -132.73453125 81.00433594 -133.390625 81.44726562 C-134.37289062 82.12305664 -134.37289062 82.12305664 -135.375 82.8125 C-136.02210938 83.25142578 -136.66921875 83.69035156 -137.3359375 84.14257812 C-140.33077386 86.17435723 -143.31024821 88.21932619 -146.265625 90.30859375 C-149.44669695 92.27631397 -151.32618347 92.34988729 -155 92 C-154.8391826 85.56730405 -151.34621821 82.2917933 -147 78 C-144.37737908 75.62071504 -141.73252224 73.27926747 -139.0390625 70.98046875 C-136.77174455 69.08223864 -136.77174455 69.08223864 -136 66 C-147.19967501 71.71898298 -154.8940781 79.81166046 -159.375 91.625 C-159.684375 92.800625 -159.684375 92.800625 -160 94 C-162.33294775 94.04241723 -164.66702567 94.04092937 -167 94 C-168 93 -168 93 -168.4375 90.125 C-168.16922659 79.14814629 -158.1931763 70.31739127 -151 63 C-150.39542969 62.4328125 -149.79085938 61.865625 -149.16796875 61.28125 C-147.77543951 60.04261116 -147.77543951 60.04261116 -148 58 C-158.01739428 62.36423724 -165.22809542 73.39827459 -169.3203125 83.14453125 C-170.2761442 85.7480029 -171.17549508 88.35236618 -172 91 C-172.66 91 -173.32 91 -174 91 C-174.50980881 89.29456816 -175.00738268 87.58547682 -175.5 85.875 C-175.91765625 84.44800781 -175.91765625 84.44800781 -176.34375 82.9921875 C-177.35527316 78.38012356 -177.66431235 75.34099222 -175.53125 71.03515625 C-171.65134226 65.3570605 -167.93148793 60.52780413 -162.46875 56.3046875 C-161.9840625 55.87414062 -161.499375 55.44359375 -161 55 C-161 54.34 -161 53.68 -161 53 C-169.27683121 55.72055843 -174.18301413 63.52506933 -178 71 C-178.66 71 -179.32 71 -180 71 C-181.0041728 67.55502762 -181.41920636 64.57787752 -181 61 C-176.21250968 52.91079221 -167.85113818 46.95037939 -159 44 C-149.23962443 42.90155904 -141.01180155 45.53873548 -132 48.875 C-130.69200155 49.3415162 -129.38340886 49.80636975 -128.07421875 50.26953125 C-118.79958658 53.59221879 -118.79958658 53.59221879 -115.78833008 55.12792969 C-106.77396924 59.52373814 -93.88790362 54.78083965 -85 52 C-81.8351929 51.01470384 -78.66892152 50.03448928 -75.5 49.0625 C-74.6762085 48.80952148 -73.85241699 48.55654297 -73.00366211 48.29589844 C-48.68013793 41 -48.68013793 41 -39 41 C-39 40.01 -39 39.02 -39 38 C-43.95 38.33 -48.9 38.66 -54 39 C-54.50422365 34.79213361 -55.00353362 30.58378257 -55.5 26.375 C-55.64308594 25.18519531 -55.78617187 23.99539063 -55.93359375 22.76953125 C-56.06894531 21.61582031 -56.20429688 20.46210938 -56.34375 19.2734375 C-56.53227539 17.68668213 -56.53227539 17.68668213 -56.72460938 16.06787109 C-56.99759627 13.02677773 -57.04799174 10.05147488 -57 7 C-40.08468062 -2.71138336 -18.84131218 -5.61421698 0 0 Z " fill="#DC9174" transform="translate(436,335)"/>
<path d="M0 0 C4.72359395 0.82870069 6.2258093 2.21071184 9.5625 5.625 C12.8246986 10.78174005 12.30787582 16.77217939 11.5625 22.625 C9.09806733 29.60618552 5.17786186 37.7038849 -1.2890625 41.796875 C-3.86968282 42.79158683 -5.46806677 42.64991665 -8.1875 42.25 C-8.98671875 42.13914063 -9.7859375 42.02828125 -10.609375 41.9140625 C-11.21265625 41.81867188 -11.8159375 41.72328125 -12.4375 41.625 C-11.40232777 63.77528414 -11.40232777 63.77528414 -2.4375 83.625 C-9.78313333 99.37122463 -17.64836581 112.74709839 -34.4375 119.625 C-40.71503284 121.64084567 -48.71356041 121.86053965 -54.95703125 119.7890625 C-60.73359714 116.4976349 -63.54298773 111.41402455 -66.4375 105.625 C-66.57165472 102.9526379 -66.48068541 100.30249512 -66.4375 97.625 C-65.42171875 97.27308594 -64.4059375 96.92117187 -63.359375 96.55859375 C-47.32190658 90.87608785 -34.19689501 83.16279845 -23.4375 69.625 C-23.4375 68.965 -23.4375 68.305 -23.4375 67.625 C-27.56334043 68.33875299 -28.75578545 70.20905149 -31.36328125 73.39453125 C-40.15893597 82.85275883 -53.23568168 92.64522943 -66.46118164 93.80200195 C-81.25646573 94.22636675 -92.13148096 93.07287717 -103.4375 82.625 C-111.75708864 74.71541162 -117.21391329 63.87946956 -119.4375 52.625 C-119.47956233 50.95886419 -119.49038341 49.29082746 -119.4375 47.625 C-118.72464844 47.47804687 -118.01179687 47.33109375 -117.27734375 47.1796875 C-110.77392305 45.65667915 -105.68661077 43.98423881 -101.4375 38.625 C-98.47325601 32.15755857 -98.80717858 24.63916472 -98.4375 17.625 C-95.1375 17.625 -91.8375 17.625 -88.4375 17.625 C-88.27894531 18.759375 -88.12039062 19.89375 -87.95703125 21.0625 C-86.23387186 34.2364381 -86.23387186 34.2364381 -78.23046875 44.29296875 C-72.33161422 47.1062686 -64.07098351 46.63369841 -57.8203125 44.8984375 C-52.13719402 42.2606127 -48.98495709 38.44653108 -46.75 32.625 C-44.92492202 26.76292888 -44.71087928 20.72418592 -44.4375 14.625 C-41.16761701 13.95361379 -37.89644951 13.28870737 -34.625 12.625 C-33.69623047 12.43421875 -32.76746094 12.2434375 -31.81054688 12.046875 C-30.91787109 11.86640625 -30.02519531 11.6859375 -29.10546875 11.5 C-27.87219849 11.24863281 -27.87219849 11.24863281 -26.61401367 10.9921875 C-24.4375 10.625 -24.4375 10.625 -21.4375 10.625 C-20.4475 16.07 -20.4475 16.07 -19.4375 21.625 C-17.9525 22.12 -17.9525 22.12 -16.4375 22.625 C-15.91800781 21.45582031 -15.39851563 20.28664062 -14.86328125 19.08203125 C-14.15944273 17.5335865 -13.45498264 15.98542418 -12.75 14.4375 C-12.41033203 13.66857422 -12.07066406 12.89964844 -11.72070312 12.10742188 C-9.10980086 6.42199918 -6.6267312 1.20486022 0 0 Z " fill="#DD9274" transform="translate(325.4375,109.375)"/>
<path d="M0 0 C15.47735166 -0.53662351 29.34360459 3.52365854 40.828125 14.11328125 C41.97265625 16.02734375 41.97265625 16.02734375 42.640625 17.73828125 C43.83352842 20.04953163 44.4290065 20.93321021 46.828125 22.015625 C48.3918147 22.46201615 49.9569734 22.90328818 51.5234375 23.33984375 C58.05828599 25.5328946 61.13807449 30.24953157 64.203125 36.17578125 C70.35100417 48.94824681 68.70038782 63.86000076 64.828125 77.11328125 C64.23644531 77.21125 63.64476562 77.30921875 63.03515625 77.41015625 C57.97257218 78.36816563 54.58187974 79.35952651 50.828125 83.11328125 C50.168125 84.10328125 49.508125 85.09328125 48.828125 86.11328125 C45.703125 86.80078125 45.703125 86.80078125 42.828125 87.11328125 C42.333125 85.95828125 41.838125 84.80328125 41.328125 83.61328125 C38.77043179 78.47058849 34.9975529 74.9766202 30.828125 71.11328125 C25.9825193 66.42206985 25.9825193 66.42206985 24.828125 64.11328125 C24.87661006 61.08957688 25.02407156 58.07838583 25.18359375 55.05859375 C25.07477852 52.0136033 25.07477852 52.0136033 23.00390625 49.79296875 C18.92694554 46.64558436 14.76923101 46.77788759 9.828125 47.11328125 C6.81376103 47.5980374 3.86115952 48.28744152 0.890625 48.98828125 C-13.62780578 52.16265713 -27.59825525 53.30789621 -42.421875 53.42578125 C-43.10333588 53.43540894 -43.78479675 53.44503662 -44.48690796 53.45495605 C-57.43163594 53.61160914 -70.89203727 52.97808952 -80.73046875 43.6328125 C-83.44096853 40.64588782 -84.81692925 38.13599974 -85.171875 34.11328125 C-82.861875 33.45328125 -80.551875 32.79328125 -78.171875 32.11328125 C-78.73242161 28.75000162 -79.59028538 26.12215906 -81.171875 23.11328125 C-79.99238281 22.87996094 -78.81289062 22.64664063 -77.59765625 22.40625 C-66.511517 20.06190138 -56.04527981 16.78324825 -45.484375 12.67578125 C-44.86295624 12.43453522 -44.24153748 12.19328918 -43.60128784 11.94473267 C-40.56109649 10.76322501 -37.52234607 9.57804359 -34.48388672 8.39208984 C-22.91168649 3.92392054 -12.43218348 0.64844122 0 0 Z " fill="#232B32" transform="translate(264.171875,27.88671875)"/>
<path d="M0 0 C3.06303578 -0.08115993 6.12390815 -0.14057409 9.1875 -0.1875 C10.48397461 -0.22520508 10.48397461 -0.22520508 11.80664062 -0.26367188 C16.93586759 -0.32262851 19.64801781 0.11828207 24 3 C27.34498399 3.57154439 27.34498399 3.57154439 30.8125 3.6875 C31.97394531 3.75324219 33.13539063 3.81898437 34.33203125 3.88671875 C35.21246094 3.92410156 36.09289062 3.96148437 37 4 C35 7 35 7 33.0546875 7.51171875 C32.33539063 7.56972656 31.61609375 7.62773438 30.875 7.6875 C29.59625 7.790625 28.3175 7.89375 27 8 C27.02320313 8.92941406 27.04640625 9.85882813 27.0703125 10.81640625 C27.29836584 26.43806009 27.29836584 26.43806009 23.296875 30.8984375 C17.91290973 35.93306151 13.42326326 38.11228465 6 38 C9.78152467 54.28280036 15.26163442 69.14827758 30.125 78.5 C40.32018527 84.40428238 53.43337144 84.76923257 64.7421875 82.125 C78.30689646 77.18054973 90.17170861 68.39134373 99 57 C100.32 57.33 101.64 57.66 103 58 C96.55132147 72.04700341 80.59953909 81.23915614 66.8125 86.5 C63.93119959 87.50219145 62.07131698 88 59 88 C60.1729588 96.54334169 62.2509646 102.80933158 68.9375 108.5 C75.64638457 111.80306133 84.87861951 110.90346448 91.875 108.875 C95.84012784 107.33629367 99.01081735 105.003398 102.2734375 102.3046875 C104 101 104 101 107 100 C108.06312246 98.12413977 108.06312246 98.12413977 109 96 C109.87407841 94.8580152 110.77179293 93.73388363 111.6875 92.625 C115.98386066 86.87861762 119.95602088 80.91322667 122 74 C121.23089846 70.95758727 120.1906831 69.20748149 118.2421875 66.76953125 C117.62730469 65.89361328 117.62730469 65.89361328 117 65 C117.33 64.01 117.66 63.02 118 62 C118.33 62.66 118.66 63.32 119 64 C120.485 63.505 120.485 63.505 122 63 C122.433125 64.37091797 122.433125 64.37091797 122.875 65.76953125 C125.98261077 70.49378513 129.72906269 71.15232415 135 72.6875 C135.95173096 72.98438721 136.90346191 73.28127441 137.8840332 73.5871582 C143.37660425 75.28364901 148.90291355 76.84519932 154.47143555 78.27319336 C156.95607901 78.98737542 159.2755532 79.86152692 161.6640625 80.84765625 C165.10409099 82.24672609 168.55323742 83.58930156 172.04296875 84.859375 C194.79001232 93.17949237 215.4922461 103.1182607 226.390625 126.08984375 C229.74550055 133.90783011 233.5520415 143.41826391 233 152 C232.34 152 231.68 152 231 152 C230.67 152.66 230.34 153.32 230 154 C229.63817627 152.85168701 229.63817627 152.85168701 229.26904297 151.68017578 C228.15081524 148.15746598 227.01307079 144.64134692 225.875 141.125 C225.49601562 139.92101562 225.11703125 138.71703125 224.7265625 137.4765625 C218.62254006 118.75756036 208.30962077 107.0046334 191 98 C178.77815922 92.09019851 165.62330851 88.05624411 152.8125 83.625 C152.04779388 83.35979553 151.28308777 83.09459106 150.49520874 82.8213501 C142.74192986 80.14219354 135.08126896 77.51924196 127 76 C126.45472656 77.09957031 125.90945313 78.19914062 125.34765625 79.33203125 C117.4815321 94.8880276 108.57313331 108.60781466 91.12890625 114.33984375 C83.11365556 116.03095157 72.79381615 116.8749869 65.6015625 112.3125 C59.20032085 107.06660441 56.01526008 101.03733138 54 93 C53.97405212 91.33353533 53.9703735 89.66640333 54 88 C13.64691323 103.58407822 13.64691323 103.58407822 -13.89208984 135.40869141 C-20.68851841 151.30496571 -25.14874048 168.50571764 -30 185 C-17.13 185 -4.26 185 9 185 C9 185.33 9 185.66 9 186 C-7.335 186.495 -7.335 186.495 -24 187 C-24 187.33 -24 187.66 -24 188 C-21.36 188.33 -18.72 188.66 -16 189 C-16 189.33 -16 189.66 -16 190 C-67.15 190 -118.3 190 -171 190 C-172.03791504 194.15166016 -171.89603749 195.28388592 -170.74682617 199.22167969 C-170.44381592 200.27839874 -170.14080566 201.3351178 -169.82861328 202.42385864 C-169.48685059 203.57820404 -169.14508789 204.73254944 -168.79296875 205.921875 C-168.25212181 207.79522074 -167.71127738 209.66856721 -167.1705265 211.54194069 C-166.38643797 214.24866326 -165.59309865 216.95264628 -164.80022812 219.65680695 C-163.14038775 225.32712993 -161.50032085 231.00323619 -159.85726357 236.67844009 C-159.42945618 238.15538098 -159.00120754 239.63219412 -158.57253075 241.1088829 C-155.49434038 251.71425386 -152.50201828 262.34022355 -149.58559227 272.99119568 C-148.9738247 275.2236688 -148.35980712 277.45550994 -147.74494934 279.68713379 C-147.54508014 280.41271484 -147.34521093 281.1382959 -147.13928509 281.88586426 C-146.74046016 283.33363316 -146.34158129 284.78138721 -145.94264698 286.22912598 C-144.96791819 289.77101921 -143.99969844 293.31447371 -143.04452515 296.86169434 C-142.31717758 299.56268721 -141.58160363 302.2611358 -140.83569336 304.95706177 C-140.1610112 307.39607095 -139.49862857 309.83853019 -138.85107422 312.28488159 C-136.70273509 320.26888584 -136.70273509 320.26888584 -131 326 C-127.87715442 326.80383694 -127.87715442 326.80383694 -124.36328125 326.78515625 C-123.68303391 326.81162735 -123.00278656 326.83809845 -122.30192566 326.8653717 C-120.78480547 326.92187219 -119.26724968 326.96742631 -117.74951172 327.00372314 C-114.34260294 327.08589238 -110.93834402 327.22150361 -107.53305054 327.35339355 C-105.55725746 327.42962726 -103.58135836 327.50314859 -101.6053772 327.57434082 C-86.60055905 328.1296945 -71.6106539 329.01410692 -56.61898804 329.84274292 C-51.50959031 330.12496764 -46.39997138 330.40302079 -41.2902832 330.67993164 C-40.07648625 330.74571773 -40.07648625 330.74571773 -38.83816814 330.81283283 C-37.25482225 330.89863704 -35.6714759 330.98443264 -34.08812904 331.07021904 C-30.44479068 331.26778371 -26.80149444 331.46612054 -23.15820312 331.66455078 C-21.96424927 331.72957794 -20.77029541 331.7946051 -19.54016113 331.86160278 C-18.70190796 331.90727386 -17.86365479 331.95294495 -17 332 C-17.99 332.33 -18.98 332.66 -20 333 C-20 333.66 -20 334.32 -20 335 C-28.8969288 336.16580446 -37.62406472 335.97730973 -46.5625 335.6875 C-47.34766998 335.66421631 -48.13283997 335.64093262 -48.94180298 335.61694336 C-60.87667082 335.26214612 -72.78306595 334.657828 -84.6963501 333.86657715 C-97.04879456 333.04701216 -109.3940647 332.61221044 -121.77026367 332.34179688 C-123.0822876 332.31021484 -124.39431152 332.27863281 -125.74609375 332.24609375 C-126.90810303 332.22216553 -128.0701123 332.1982373 -129.26733398 332.17358398 C-132 332 -132 332 -134 331 C-134 330.34 -134 329.68 -134 329 C-134.86625 328.690625 -134.86625 328.690625 -135.75 328.375 C-139.83335878 325.87961408 -141.65835809 322.09578481 -143.0546875 317.6171875 C-143.32539063 316.38226563 -143.59609375 315.14734375 -143.875 313.875 C-145.30884723 307.64540688 -146.98907157 301.54515089 -148.875 295.4375 C-151.08610078 288.23035606 -153.077881 280.99296931 -154.9375 273.6875 C-156.92611707 265.88947658 -159.10954385 258.18426327 -161.5 250.5 C-164.18367386 241.87317101 -166.569821 233.20682301 -168.78759766 224.44921875 C-170.67130445 217.07189641 -172.81117063 209.79494511 -175.17211914 202.5559082 C-176.62534004 197.94223715 -177.71543883 193.87905827 -177 189 C-174.48038741 185.82938668 -172.99899335 184.18943689 -168.96478271 183.42443848 C-167.81850403 183.44744019 -166.67222534 183.47044189 -165.49121094 183.49414062 C-164.84401344 183.49982559 -164.19681595 183.50551056 -163.53000641 183.5113678 C-161.34709828 183.53614988 -159.16658865 183.59662216 -156.984375 183.65625 C-155.40122028 183.68058212 -153.81802449 183.70235324 -152.23480225 183.72180176 C-148.73588097 183.76817947 -145.23755483 183.8286854 -141.73901367 183.89794922 C-135.68628987 184.01278381 -129.63366498 184.06704585 -123.58007812 184.11328125 C-114.69777201 184.18278538 -105.81567891 184.26165145 -96.93359375 184.35546875 C-95.25408253 184.37317322 -95.25408253 184.37317322 -93.54064178 184.39123535 C-91.26319836 184.41529779 -88.98575543 184.43940689 -86.70831299 184.46356201 C-80.85373305 184.5252479 -74.99913123 184.58478398 -69.14453125 184.64453125 C-57.76299916 184.76098356 -46.38149216 184.87971237 -35 185 C-34.59984428 183.38007141 -34.59984428 183.38007141 -34.19160461 181.72741699 C-33.83394338 180.28635935 -33.47620725 178.8453203 -33.1184082 177.40429688 C-32.94350105 176.69537292 -32.7685939 175.98644897 -32.58838654 175.25604248 C-22.12134717 133.17326951 -22.12134717 133.17326951 -9 119 C-8.36835938 118.278125 -7.73671875 117.55625 -7.0859375 116.8125 C5.18004193 103.58178061 22.13721122 95.98411186 38 88 C36.77228882 87.44832153 36.77228882 87.44832153 35.51977539 86.88549805 C19.7872945 79.69528856 10.79313308 68.33867103 4.26171875 52.6015625 C3.03157001 49.09011625 2.25490122 45.71334279 1.5625 42.0625 C0.45660599 36.61860506 -1.15852329 34.23866121 -5.27734375 30.64453125 C-8.4655105 27.60095257 -10.07756852 24.28805986 -11 20 C-11.0200051 15.27879698 -10.61225296 10.67841123 -10 6 C-9.67 6 -9.34 6 -9 6 C-8.91363281 6.76183594 -8.82726562 7.52367188 -8.73828125 8.30859375 C-7.74064416 15.63985345 -5.95850634 20.74972684 -2 27 C-1.01 24.03 -0.02 21.06 1 18 C3.72106694 20.72106694 3.60655572 22.84776311 4.125 26.625 C4.29257813 27.81351563 4.46015625 29.00203125 4.6328125 30.2265625 C4.75398437 31.14179688 4.87515625 32.05703125 5 33 C10.86219559 33.4885163 15.21880393 32.58589705 20 29 C24.15009007 23.03424552 24.12081025 15.02492096 23 8 C18.72763811 3.68228395 13.56239336 3.7438262 7.8125 3.4375 C7.06291016 3.39431641 6.31332031 3.35113281 5.54101562 3.30664062 C3.69421625 3.20077315 1.84713166 3.0999024 0 3 C0 2.01 0 1.02 0 0 Z " fill="#1B2125" transform="translate(200,119)"/>
<path d="M0 0 C1.10214844 -0.00515625 2.20429688 -0.0103125 3.33984375 -0.015625 C6.0625 0.25 6.0625 0.25 8.0625 2.25 C8.52632816 5.36059364 8.84845277 8.44289402 9.09765625 11.57617188 C9.80642121 18.33618485 12.98756151 21.55420049 18.0625 25.6875 C21.49207939 28.61799881 23.86495232 31.31272708 26.0625 35.25 C26.0625 35.91 26.0625 36.57 26.0625 37.25 C24.00021534 37.73009262 21.93766299 38.20903544 19.875 38.6875 C18.72644531 38.95433594 17.57789063 39.22117188 16.39453125 39.49609375 C15.29496094 39.74488281 14.19539063 39.99367187 13.0625 40.25 C12.21300781 40.44464844 11.36351562 40.63929687 10.48828125 40.83984375 C7.76780854 41.29982706 5.19565243 41.38259822 2.4375 41.375 C1.49648438 41.37757812 0.55546875 41.38015625 -0.4140625 41.3828125 C-2.9375 41.25 -2.9375 41.25 -5.9375 40.25 C-9.66215438 39.99185951 -13.39234917 40.01858196 -17.125 40 C-18.64963867 39.9690625 -18.64963867 39.9690625 -20.20507812 39.9375 C-26.51541587 39.90490949 -31.19952563 40.57992027 -36.9375 43.25 C-37.2675 43.58 -37.5975 43.91 -37.9375 44.25 C-40.36962772 44.40423249 -42.75385567 44.48166746 -45.1875 44.5 C-45.85652344 44.520625 -46.52554688 44.54125 -47.21484375 44.5625 C-51.71414971 44.597858 -54.28258372 43.81621782 -57.9375 41.25 C-61.40462111 40.09429296 -64.4789956 39.92164707 -68.125 39.6875 C-69.39730469 39.60371094 -70.66960937 39.51992187 -71.98046875 39.43359375 C-73.44419922 39.34271484 -73.44419922 39.34271484 -74.9375 39.25 C-71.25662647 36.79608431 -68.49394412 37.02197241 -64.25 37.125 C-63.54810547 37.13402344 -62.84621094 37.14304688 -62.12304688 37.15234375 C-60.39438475 37.17586296 -58.66589855 37.21173287 -56.9375 37.25 C-57.4325 34.775 -57.4325 34.775 -57.9375 32.25 C-61.26683702 31.14022099 -63.80978308 31.11698463 -67.3125 31.125 C-68.43398437 31.12242188 -69.55546875 31.11984375 -70.7109375 31.1171875 C-73.58014622 31.23529052 -76.14958229 31.59217672 -78.9375 32.25 C-79.73456768 28.75007304 -80.05613027 25.5357769 -80.03515625 21.94921875 C-80.03193359 20.97275391 -80.02871094 19.99628906 -80.02539062 18.99023438 C-80.01701172 17.98283203 -80.00863281 16.97542969 -80 15.9375 C-79.99548828 14.91076172 -79.99097656 13.88402344 -79.98632812 12.82617188 C-79.97458184 10.30072118 -79.95815565 7.77539095 -79.9375 5.25 C-79.36644531 5.31856201 -78.79539063 5.38712402 -78.20703125 5.45776367 C-55.6804293 7.9579837 -33.16635743 6.33630651 -11.1328125 1.1328125 C-7.38817815 0.27913531 -3.85349772 -0.01832817 0 0 Z " fill="#DD9274" transform="translate(276.9375,78.75)"/>
<path d="M0 0 C1.03382813 0.00386719 2.06765625 0.00773437 3.1328125 0.01171875 C4.20789063 0.03621094 5.28296875 0.06070313 6.390625 0.0859375 C7.45023437 0.08722656 8.50984375 0.08851562 9.6015625 0.08984375 C15.60947477 0.15692962 20.88665717 0.72362837 26.640625 2.4609375 C27.31897283 20.3492211 27.31897283 20.3492211 22.28125 25.98046875 C16.88488751 30.80659706 12.1111531 31.88478442 5.07421875 31.70703125 C1.63198811 31.35894051 -0.54514395 30.47110253 -3.359375 28.4609375 C-8.75157173 21.72069158 -9.58564143 15.64978238 -9.8203125 7.265625 C-8.89087052 1.61020685 -5.38252728 -0.04737813 0 0 Z " fill="#DC9274" transform="translate(250.359375,121.5390625)"/>
<path d="M0 0 C0.99 0.33 1.98 0.66 3 1 C4.10938502 7.09622104 5.21174287 13.19365982 6.30810547 19.29223633 C6.6806095 21.35897595 7.05490423 23.42539378 7.43115234 25.49145508 C9.70098786 37.96344465 11.72344762 50.38472151 13 63 C13.96180176 62.49331787 14.92360352 61.98663574 15.91455078 61.46459961 C29.14119692 54.54717202 41.2796319 51.82237491 56.25 51.8125 C57.24257813 51.80025391 58.23515625 51.78800781 59.2578125 51.77539062 C60.20914063 51.77345703 61.16046875 51.77152344 62.140625 51.76953125 C63.43274902 51.76336792 63.43274902 51.76336792 64.75097656 51.75708008 C67 52 67 52 70 54 C69.505 54.99 69.505 54.99 69 56 C68.30664551 56.00410889 67.61329102 56.00821777 66.89892578 56.01245117 C49.98100463 56.18725198 34.21536128 56.91979261 19 65 C19.06058594 65.969375 19.12117188 66.93875 19.18359375 67.9375 C19.7890625 77.625 20.39453125 87.3125 21 97 C21.71542969 96.83628906 22.43085938 96.67257812 23.16796875 96.50390625 C25.95828394 96.00742258 28.4835503 95.89978067 31.3125 95.9375 C32.19550781 95.94652344 33.07851563 95.95554687 33.98828125 95.96484375 C34.65214844 95.97644531 35.31601562 95.98804688 36 96 C36 96.99 36 97.98 36 99 C35.07888428 99.21615967 34.15776855 99.43231934 33.20874023 99.6550293 C29.71243916 100.47748371 26.21838171 101.30916374 22.72485352 102.14331055 C21.22738169 102.49957746 19.72935212 102.85351011 18.23071289 103.20483398 C9.09359774 105.3487895 0.19031337 107.78393073 -8.67260742 110.88085938 C-17.80405376 113.95214487 -26.3671449 115.52121661 -36 115 C-35.67 114.01 -35.34 113.02 -35 112 C-32.45947266 111.2331543 -32.45947266 111.2331543 -29.0390625 110.63671875 C-23.36209401 109.53314372 -17.87315998 108.18566123 -12.3359375 106.51953125 C-11.23635712 106.19032181 -11.23635712 106.19032181 -10.11456299 105.85446167 C-7.86675312 105.17798314 -5.62063105 104.49617421 -3.375 103.8125 C-0.36382781 102.89607009 2.64939087 101.98687385 5.6640625 101.08203125 C6.34320709 100.87270462 7.02235168 100.66337799 7.72207642 100.44770813 C11.01439125 99.46022247 13.51793347 99 17 99 C16.90912109 98.26362305 16.81824219 97.52724609 16.72460938 96.76855469 C16.31392032 93.42933674 15.9069203 90.08967921 15.5 86.75 C15.35691406 85.59113281 15.21382813 84.43226563 15.06640625 83.23828125 C14.86337891 81.56572266 14.86337891 81.56572266 14.65625 79.859375 C14.53056641 78.83295898 14.40488281 77.80654297 14.27539062 76.74902344 C14 74 14 74 14 70 C12.68 69.67 11.36 69.34 10 69 C6.95424082 52.99517431 3.94559645 36.98372093 1.125 20.9375 C0.91012939 19.73907471 0.69525879 18.54064941 0.47387695 17.3059082 C-1.39372768 6.55156032 -1.39372768 6.55156032 -1 1 C-0.67 0.67 -0.34 0.34 0 0 Z " fill="#181E24" transform="translate(361,277)"/>
<path d="M0 0 C2.68295942 0.84171276 4.87484639 1.82132054 7.375 3.0625 C14.02095988 6.13416213 20.46833393 5.73845472 27.41015625 3.8671875 C32.67001697 2.65303723 36.93915646 3.54136861 42.125 4.75 C43.98195841 5.14203549 45.84006424 5.52867118 47.69921875 5.91015625 C49.08246338 6.19463623 49.08246338 6.19463623 50.49365234 6.48486328 C62.88036071 8.8535378 75.61569308 9.39528017 88.1875 10 C88.6825 14.455 88.6825 14.455 89.1875 19 C73.0175 19 56.8475 19 40.1875 19 C39.1975 17.02 38.2075 15.04 37.1875 13 C34.80888611 11.81069305 33.11782511 11.76768584 30.46240234 11.61108398 C29.48153656 11.55109726 28.50067078 11.49111053 27.49008179 11.42930603 C26.42858917 11.36884598 25.36709656 11.30838593 24.2734375 11.24609375 C23.18866119 11.18092056 22.10388489 11.11574738 20.98623657 11.04859924 C17.511887 10.8408071 14.03721448 10.63908905 10.5625 10.4375 C8.21091378 10.29792511 5.85935091 10.15795625 3.5078125 10.01757812 C-2.26536157 9.67380876 -8.0388125 9.33502939 -13.8125 9 C-4.9470515 0 -4.9470515 0 0 0 Z " fill="#41568C" transform="translate(303.8125,421)"/>
<path d="M0 0 C0.33 0 0.66 0 1 0 C3.29106835 10.06821146 5.12316756 20.16211544 6.73486328 30.35766602 C7.12309149 32.8004912 7.52419403 35.24098081 7.92578125 37.68164062 C9.60523104 48.11777153 10.59172617 58.43824399 11 69 C9.515 69.495 9.515 69.495 8 70 C8.03029297 70.64098633 8.06058594 71.28197266 8.09179688 71.94238281 C11.15232905 138.49718644 11.15232905 138.49718644 0.28125 152.16015625 C-4.6875982 156.95590933 -10.4613343 159.06484342 -17 161 C-17.33 159.35 -17.66 157.7 -18 156 C-17.33613281 155.75765625 -16.67226563 155.5153125 -15.98828125 155.265625 C-9.17914922 152.68113693 -4.10823858 150.69418273 -0.8125 143.875 C3.34273925 134.50360935 3.27492694 124.52257199 3.1953125 114.4609375 C3.19157337 113.08517667 3.18873066 111.70941315 3.18673706 110.33364868 C3.17917132 106.74652503 3.15958531 103.15956833 3.1373291 99.57250977 C3.11671681 95.89862322 3.10770275 92.22470919 3.09765625 88.55078125 C3.07633125 81.36711212 3.04228286 74.18357963 3 67 C0.36 66.67 -2.28 66.34 -5 66 C-4.67 65.01 -4.34 64.02 -4 63 C-1.1559074 61.63062208 0.09482529 62.02980223 3.14453125 62.98828125 C4.08683594 63.32214844 5.02914063 63.65601563 6 64 C5.20288552 58.49020235 4.40318694 52.98078746 3.60131836 47.47167969 C3.33013838 45.60621738 3.05960682 43.74066067 2.78979492 41.875 C2.39682264 39.15858826 2.00174468 36.44249418 1.60546875 33.7265625 C1.47534393 32.83245667 1.34521912 31.93835083 1.21115112 31.01715088 C0.55584214 26.56930721 -0.13635841 22.1321153 -0.90380859 17.70214844 C-1.04767502 16.87041107 -1.19154144 16.03867371 -1.33976746 15.18173218 C-1.6148001 13.61197837 -1.89569693 12.04323725 -2.18330383 10.47573853 C-3.10875892 5.21751783 -3.10875892 5.21751783 -2 3 C-1.34 3 -0.68 3 0 3 C0 2.01 0 1.02 0 0 Z " fill="#262A2D" transform="translate(433,268)"/>
<path d="M0 0 C2.54232342 -0.08152344 5.08199202 -0.14073716 7.625 -0.1875 C8.33785156 -0.21263672 9.05070313 -0.23777344 9.78515625 -0.26367188 C14.61722356 -0.33016821 17.78576993 0.38667114 22 3 C24.81093662 5.81093662 24.33299068 7.7013292 24.375 11.625 C24.26646265 17.51013631 24.05532817 22.47893387 20 27 C15.23345139 30.61885469 10.86718367 31.48893197 5 31 C3.45898616 26.04167512 2.5104252 21.22879072 1.9375 16.0625 C1.85951172 15.39798828 1.78152344 14.73347656 1.70117188 14.04882812 C1.54466027 12.71524573 1.3901728 11.3814241 1.23779297 10.04736328 C0.84846418 6.69529836 0.42270866 3.3480022 0 0 Z " fill="#D89073" transform="translate(200,122)"/>
<path d="M0 0 C0.33 0 0.66 0 1 0 C1.33 8.25 1.66 16.5 2 25 C3.65 24.34 5.3 23.68 7 23 C10.15625 22.69921875 10.15625 22.69921875 13.5 22.6875 C14.6034375 22.67074219 15.706875 22.65398437 16.84375 22.63671875 C20.29823407 23.03432645 22.18673608 24.01077048 25 26 C24.505 28.475 24.505 28.475 24 31 C19.05 31 14.1 31 9 31 C12.63 31.33 16.26 31.66 20 32 C20 32.33 20 32.66 20 33 C15.05 33.33 10.1 33.66 5 34 C5.144375 35.464375 5.28875 36.92875 5.4375 38.4375 C5.52386719 39.345 5.61023438 40.2525 5.69921875 41.1875 C5.89132863 42.98385213 6.1196209 44.77694365 6.39453125 46.5625 C6.51183594 47.34625 6.62914062 48.13 6.75 48.9375 C6.86859375 49.64777344 6.9871875 50.35804688 7.109375 51.08984375 C6.96145221 53.6732096 5.86848448 54.30478351 4 56 C3.27802838 58.60611077 3.27802838 58.60611077 3 61 C-1.63768531 57.3561044 -3.07369925 52.36905103 -5 47 C-5.99 48.32 -6.98 49.64 -8 51 C-8.13277344 50.10796875 -8.26554688 49.2159375 -8.40234375 48.296875 C-8.57894531 47.12640625 -8.75554687 45.9559375 -8.9375 44.75 C-9.11152344 43.58984375 -9.28554687 42.4296875 -9.46484375 41.234375 C-9.8727736 38.76893039 -10.33901303 36.40575438 -11 34 C-7.5647952 31.70986347 -6.014669 31.82157027 -2 32 C-2.144375 31.04738281 -2.28875 30.09476563 -2.4375 29.11328125 C-2.623125 27.85902344 -2.80875 26.60476562 -3 25.3125 C-3.185625 24.07113281 -3.37125 22.82976562 -3.5625 21.55078125 C-3.92100411 18.64113629 -4.08942256 15.92299978 -4 13 C-3.01 12.67 -2.02 12.34 -1 12 C-0.67 8.04 -0.34 4.08 0 0 Z " fill="#27292C" transform="translate(196,86)"/>
<path d="M0 0 C1.33734284 0.31686437 2.66979085 0.65440993 4 1 C5.85210084 1.20066022 7.70849817 1.36318027 9.56640625 1.5 C11.23654785 1.6230249 11.23654785 1.6230249 12.94042969 1.74853516 C14.13571289 1.83151855 15.33099609 1.91450195 16.5625 2 C17.79000977 2.08685059 19.01751953 2.17370117 20.28222656 2.26318359 C33.1771862 3.13917308 46.08210685 3.61860277 59 4 C56.54458956 6.45541044 55.20198289 6.5308031 51.81591797 7.14501953 C50.73494843 7.34507599 49.65397888 7.54513245 48.54025269 7.75125122 C47.36939117 7.95966644 46.19852966 8.16808167 44.9921875 8.3828125 C43.79643097 8.60194305 42.60067444 8.82107361 41.36868286 9.04684448 C37.53875816 9.74694765 33.70695104 10.43608299 29.875 11.125 C27.282421 11.59693671 24.6899712 12.0695838 22.09765625 12.54296875 C15.73324868 13.70356806 9.36726052 14.85516207 3 16 C1.79106342 12.41384748 0.64907606 8.87975674 -0.1875 5.1875 C-0.36667969 4.41792969 -0.54585938 3.64835937 -0.73046875 2.85546875 C-0.81941406 2.24316406 -0.90835937 1.63085938 -1 1 C-0.67 0.67 -0.34 0.34 0 0 Z " fill="#222930" transform="translate(265,431)"/>
<path d="M0 0 C0.495 1.485 0.495 1.485 1 3 C-1.72852932 6.80503252 -5.81678439 7.06996079 -10.12890625 7.8671875 C-10.94309021 8.02720245 -11.75727417 8.18721741 -12.59613037 8.3520813 C-15.24957236 8.87080094 -17.90583129 9.37309311 -20.5625 9.875 C-22.381295 10.22687625 -24.19989836 10.57974452 -26.01831055 10.93359375 C-29.64578057 11.63756079 -33.27441365 12.33495301 -36.90429688 13.02636719 C-41.38200151 13.87977141 -45.85578344 14.75179734 -50.328125 15.6328125 C-52.65616112 16.08899549 -54.98427887 16.54476218 -57.3125 17 C-58.37090088 17.20737793 -59.42930176 17.41475586 -60.51977539 17.62841797 C-61.95824829 17.90516357 -61.95824829 17.90516357 -63.42578125 18.1875 C-64.24473877 18.34605469 -65.06369629 18.50460937 -65.9074707 18.66796875 C-68 19 -68 19 -71 19 C-70.67 17.02 -70.34 15.04 -70 13 C-69.22992111 12.8518837 -68.45984222 12.7037674 -67.66642761 12.55116272 C-60.41191003 11.15546254 -53.15777034 9.75782165 -45.90404797 8.35799503 C-42.17476316 7.63838711 -38.44533642 6.91953252 -34.71557617 6.20239258 C-31.11667979 5.51038587 -27.51816837 4.81640946 -23.91991615 4.12106133 C-22.54652771 3.85601949 -21.17300166 3.59168965 -19.79933739 3.32808113 C-17.87652372 2.95896423 -15.95424023 2.58708873 -14.03198242 2.21508789 C-12.93722092 2.00412979 -11.84245941 1.79317169 -10.71452332 1.57582092 C-2.91448499 -0.07876986 -2.91448499 -0.07876986 0 0 Z " fill="#222A31" transform="translate(339,437)"/>
<path d="M0 0 C3.5386994 1.65139305 4.81070153 2.71605229 7 6 C7.67226891 12.94677871 7.67226891 12.94677871 5.125 16.9375 C2.43129792 19.55197555 1.51513465 19.94056139 -2.25 20.375 C-7.19272958 19.88072704 -8.53828301 18.46171699 -12 15 C-13.55024464 11.89951072 -13.28992015 9.42105782 -13 6 C-9.27625236 0.29025362 -6.72149163 -0.45569435 0 0 Z " fill="#151C22" transform="translate(141,370)"/>
<path d="M0 0 C3.0625 1.625 3.0625 1.625 5 3 C4.67 4.32 4.34 5.64 4 7 C3.21874756 6.98952637 2.43749512 6.97905273 1.63256836 6.96826172 C-1.93242126 6.92649792 -5.49735922 6.90060902 -9.0625 6.875 C-10.29162109 6.85824219 -11.52074219 6.84148437 -12.78710938 6.82421875 C-18.90556393 6.79123517 -24.24479433 6.82790158 -30 9 C-30.66 8.34 -31.32 7.68 -32 7 C-31.9375 5.125 -31.9375 5.125 -31 3 C-22.94500133 -4.41907772 -9.95007338 -3.47830955 0 0 Z " fill="#202225" transform="translate(271,109)"/>
<path d="M0 0 C0.33 0 0.66 0 1 0 C1.60076304 44.44722281 1.60076304 44.44722281 -7.71875 56.16015625 C-12.6875982 60.95590933 -18.4613343 63.06484342 -25 65 C-25.33 63.35 -25.66 61.7 -26 60 C-25.33613281 59.75765625 -24.67226563 59.5153125 -23.98828125 59.265625 C-17.17914922 56.68113693 -12.10823858 54.69418273 -8.8125 47.875 C-5.61373469 39.96837445 -4.7837048 32.03553486 -4.44140625 23.56640625 C-4 21 -4 21 -2.50439453 19.60400391 C-0.60462114 17.57844221 -0.58546462 16.51010219 -0.48828125 13.76953125 C-0.45283203 12.96708984 -0.41738281 12.16464844 -0.38085938 11.33789062 C-0.35830078 10.50451172 -0.33574219 9.67113281 -0.3125 8.8125 C-0.27833984 7.96751953 -0.24417969 7.12253906 -0.20898438 6.25195312 C-0.12658529 4.16843351 -0.06161355 2.08423784 0 0 Z " fill="#1D2124" transform="translate(441,364)"/>
<path d="M0 0 C3.06303578 -0.08115993 6.12390815 -0.14057409 9.1875 -0.1875 C10.48397461 -0.22520508 10.48397461 -0.22520508 11.80664062 -0.26367188 C16.93586759 -0.32262851 19.64801781 0.11828207 24 3 C27.34498399 3.57154439 27.34498399 3.57154439 30.8125 3.6875 C32.55466797 3.78611328 32.55466797 3.78611328 34.33203125 3.88671875 C35.21246094 3.92410156 36.09289062 3.96148437 37 4 C35 7 35 7 33.0546875 7.51171875 C32.33539063 7.56972656 31.61609375 7.62773438 30.875 7.6875 C29.59625 7.790625 28.3175 7.89375 27 8 C27.02320313 8.97582031 27.04640625 9.95164063 27.0703125 10.95703125 C27.09738281 12.86548828 27.09738281 12.86548828 27.125 14.8125 C27.14820313 16.07707031 27.17140625 17.34164062 27.1953125 18.64453125 C27 22 27 22 25 25 C23.27320055 21.54640109 23.71255467 17.32801873 23.65820312 13.49804688 C23.48452632 9.36263997 23.48452632 9.36263997 21.14453125 6.08984375 C16.78152031 3.87257589 12.60509511 3.69282603 7.8125 3.4375 C7.06291016 3.39431641 6.31332031 3.35113281 5.54101562 3.30664062 C3.69421625 3.20077315 1.84713166 3.0999024 0 3 C0 2.01 0 1.02 0 0 Z " fill="#13191F" transform="translate(200,119)"/>
<path d="M0 0 C0.99 0.33 1.98 0.66 3 1 C2.29101607 5.68259154 0.47341808 8.77651527 -2.0390625 12.71875 C-3.41081524 15.37863745 -3.41081524 15.37863745 -2 20 C1.3 20.66 4.6 21.32 8 22 C7.67 23.65 7.34 25.3 7 27 C2.37656623 26.88698273 -1.73443277 26.67490528 -5.5625 23.875 C-8 21 -8 21 -8.40234375 17.78515625 C-7.91425845 13.19336343 -6.41234704 10.41329046 -4 6.5625 C-3.6184375 5.92634766 -3.236875 5.29019531 -2.84375 4.63476562 C-1.90948501 3.08155008 -0.95661444 1.53955137 0 0 Z " fill="#232325" transform="translate(229,142)"/>
<path d="M0 0 C0.99 0 1.98 0 3 0 C4.14404987 4.09680565 4.12609467 8.04053531 4.09765625 12.265625 C4.0962413 13.05902283 4.09482635 13.85242065 4.09336853 14.66986084 C4.08778415 17.19661272 4.07523454 19.72327504 4.0625 22.25 C4.05748298 23.96614455 4.05292043 25.68229049 4.04882812 27.3984375 C4.03781984 31.59899269 4.02056596 35.79948117 4 40 C3.67 40 3.34 40 3 40 C2.67 37.69 2.34 35.38 2 33 C1.34 33.66 0.68 34.32 0 35 C0 23.45 0 11.9 0 0 Z " fill="#0F161B" transform="translate(437,350)"/>
<path d="M0 0 C2.0625 0.4375 2.0625 0.4375 4 1 C2.99284277 3.61094564 2.35522481 4.79123915 -0.09375 6.23046875 C-1.28484375 6.70419922 -1.28484375 6.70419922 -2.5 7.1875 C-3.2940625 7.51105469 -4.088125 7.83460938 -4.90625 8.16796875 C-5.94265625 8.57982422 -5.94265625 8.57982422 -7 9 C-7.99 9.495 -7.99 9.495 -9 10 C-11.5115887 10.09792892 -13.98909766 10.13907983 -16.5 10.125 C-17.18964844 10.12886719 -17.87929687 10.13273438 -18.58984375 10.13671875 C-23.74666707 10.12666646 -23.74666707 10.12666646 -26 9 C-25.67 7.68 -25.34 6.36 -25 5 C-24.10539063 5.04640625 -23.21078125 5.0928125 -22.2890625 5.140625 C-14.31584047 5.37863163 -8.07628587 4.83876946 -1 1 C-0.67 0.67 -0.34 0.34 0 0 Z " fill="#1C1E22" transform="translate(258,174)"/>
<path d="M0 0 C0 1.32 0 2.64 0 4 C-0.928125 4.12375 -1.85625 4.2475 -2.8125 4.375 C-6.10080769 5.63827538 -6.10080769 5.63827538 -6.99609375 8.1484375 C-7.7503361 10.75115982 -8.3904545 13.35998172 -9 16 C-9.65629516 18.00342734 -10.31760646 20.00531118 -11 22 C-11.99 21.67 -12.98 21.34 -14 21 C-13.83432049 13.78541063 -12.59941694 7.75237052 -8 2 C-4.97122558 0.02605333 -3.8007023 0 0 0 Z " fill="#1A1E22" transform="translate(330,118)"/>
<path d="M0 0 C1.32 0 2.64 0 4 0 C4.50505263 2.89503383 5.0042022 5.79087953 5.5 8.6875 C5.64308594 9.50412109 5.78617188 10.32074219 5.93359375 11.16210938 C6.61165962 15.14978248 7.19858392 18.93730404 7 23 C2.64111503 19.09203417 0.15213245 15.71572599 -0.18359375 9.72265625 C-0.18711879 6.47609358 -0.12994306 3.24376387 0 0 Z " fill="#F5F6F6" transform="translate(192,124)"/>
<path d="M0 0 C2.4375 0.25 2.4375 0.25 5 1 C7.31332486 4.46998729 7.33957563 5.92509248 7 10 C6.01 11.485 6.01 11.485 5 13 C2.13275314 12.42655063 1.1385485 12.1385485 -1 10 C-1.23046875 7.87109375 -1.23046875 7.87109375 -1.1875 5.4375 C-1.18105469 4.63183594 -1.17460937 3.82617188 -1.16796875 2.99609375 C-1 1 -1 1 0 0 Z " fill="#1C1F23" transform="translate(253,130)"/>
<path d="M0 0 C3.3891571 0.60520662 5.30430129 1.91300745 8 4 C12.060663 5.35355433 16.02860994 5.3785996 20.28515625 5.62109375 C23 6 23 6 25 8 C20.13195023 10.43402489 13.3323305 9.50252329 8 9 C4.71404462 7.72241237 3.49568096 6.61452291 1 4 C0.3359375 1.828125 0.3359375 1.828125 0 0 Z " fill="#161B20" transform="translate(242,147)"/>
<path d="M0 0 C0.33 0 0.66 0 1 0 C1.0292814 4.47915271 1.04689296 8.95828042 1.0625 13.4375 C1.07087891 14.69755859 1.07925781 15.95761719 1.08789062 17.25585938 C1.10531376 23.9289203 0.91378066 30.38768168 0 37 C-0.495 35.515 -0.495 35.515 -1 34 C-1.66 34 -2.32 34 -3 34 C-3.24887295 31.89807303 -3.4734719 29.79326036 -3.6875 27.6875 C-3.81511719 26.51574219 -3.94273437 25.34398437 -4.07421875 24.13671875 C-4 21 -4 21 -2.52734375 19.56835938 C-0.58357659 17.57239387 -0.5856894 16.51644106 -0.48828125 13.76953125 C-0.45283203 12.96708984 -0.41738281 12.16464844 -0.38085938 11.33789062 C-0.35830078 10.50451172 -0.33574219 9.67113281 -0.3125 8.8125 C-0.27833984 7.96751953 -0.24417969 7.12253906 -0.20898438 6.25195312 C-0.12658529 4.16843351 -0.06161355 2.08423784 0 0 Z " fill="#44494C" transform="translate(441,364)"/>
<path d="M0 0 C0.33 0 0.66 0 1 0 C1.56866548 7.42424372 0.61194727 13.4163503 -3 20 C-4.63671875 21.78515625 -4.63671875 21.78515625 -6 23 C-6.66 22.67 -7.32 22.34 -8 22 C-7.34496718 17.94180817 -6.05440879 14.46028718 -4.4375 10.6875 C-3.98246094 9.61886719 -3.52742188 8.55023438 -3.05859375 7.44921875 C-2.53458984 6.23685547 -2.53458984 6.23685547 -2 5 C-1.34 5 -0.68 5 0 5 C0 3.35 0 1.7 0 0 Z " fill="#151C20" transform="translate(340,122)"/>
<path d="M0 0 C4.70588235 0.70588235 4.70588235 0.70588235 6 2 C6.27314815 7.73611111 6.27314815 7.73611111 6 10 C5.34 10.66 4.68 11.32 4 12 C0.46428571 11.46428571 0.46428571 11.46428571 -1 10 C-1.0979057 8.50261876 -1.12974864 7.00057108 -1.125 5.5 C-1.12757813 4.6853125 -1.13015625 3.870625 -1.1328125 3.03125 C-1 1 -1 1 0 0 Z " fill="#1A1E22" transform="translate(210,130)"/>
<path d="M0 0 C0.33 0 0.66 0 1 0 C1.53181175 2.24743045 2.05007126 4.49807102 2.5625 6.75 C2.85253906 8.00296875 3.14257812 9.2559375 3.44140625 10.546875 C3.93444283 13.59473748 4.07666879 15.17641828 3 18 C2.67 17.67 2.34 17.34 2 17 C1.34 17.99 0.68 18.98 0 20 C-0.5321441 17.91952703 -1.05031786 15.83547707 -1.5625 13.75 C-1.85253906 12.58984375 -2.14257812 11.4296875 -2.44140625 10.234375 C-2.95179964 7.27909017 -3.02996165 5.75565899 -2 3 C-1.34 3 -0.68 3 0 3 C0 2.01 0 1.02 0 0 Z " fill="#262C31" transform="translate(433,268)"/>
<path d="M0 0 C0.66 0 1.32 0 2 0 C2.53364887 2.05922133 3.05142189 4.12256107 3.5625 6.1875 C3.85253906 7.33605469 4.14257812 8.48460937 4.44140625 9.66796875 C4.98068761 12.88480093 4.88247476 14.89672783 4 18 C3.34 17.67 2.68 17.34 2 17 C2 16.34 2 15.68 2 15 C1.34 15 0.68 15 0 15 C-1.29243536 10.8803623 -2.26252625 7.33168317 -2 3 C-1.34 3 -0.68 3 0 3 C0 2.01 0 1.02 0 0 Z " fill="#1C1F23" transform="translate(316,166)"/>
<path d="M0 0 C1.05960937 0.29293945 1.05960937 0.29293945 2.140625 0.59179688 C3.88719844 1.07564492 5.63134124 1.56825123 7.375 2.0625 C6.385 2.5575 6.385 2.5575 5.375 3.0625 C5.375 3.7225 5.375 4.3825 5.375 5.0625 C1.49264181 6.56078872 -1.05949288 5.49360582 -4.875 4.125 C-5.95265625 3.74472656 -7.0303125 3.36445313 -8.140625 2.97265625 C-8.96046875 2.67230469 -9.7803125 2.37195313 -10.625 2.0625 C-10.295 1.0725 -9.965 0.0825 -9.625 -0.9375 C-6.39130321 -2.5543484 -3.31871743 -0.94601816 0 0 Z " fill="#20262B" transform="translate(349.625,195.9375)"/>
<path d="M0 0 C0.33 0 0.66 0 1 0 C1 7.59 1 15.18 1 23 C0.34 23 -0.32 23 -1 23 C-1 23.99 -1 24.98 -1 26 C-1.66 26 -2.32 26 -3 26 C-3.33 21.71 -3.66 17.42 -4 13 C-3.01 12.67 -2.02 12.34 -1 12 C-0.67 8.04 -0.34 4.08 0 0 Z " fill="#343132" transform="translate(196,86)"/>
<path d="M0 0 C1.41750563 0.11509661 2.83401169 0.24253658 4.25 0.375 C5.03890625 0.44460937 5.8278125 0.51421875 6.640625 0.5859375 C9.085877 1.01507113 10.84836903 1.78600638 13 3 C12.34 3 11.68 3 11 3 C11 8.61 11 14.22 11 20 C8.73045369 16.59568053 8.63450051 14.83475798 8.375 10.8125 C8.30023438 9.72582031 8.22546875 8.63914062 8.1484375 7.51953125 C8.09945313 6.68808594 8.05046875 5.85664062 8 5 C5.525 4.01 5.525 4.01 3 3 C3 2.34 3 1.68 3 1 C2.01 0.67 1.02 0.34 0 0 Z " fill="#11191F" transform="translate(269,119)"/>
<path d="M0 0 C4.95 0 9.9 0 15 0 C15.66 1.65 16.32 3.3 17 5 C5.615 4.505 5.615 4.505 -6 4 C-6 3.67 -6 3.34 -6 3 C-3.36 2.67 -0.72 2.34 2 2 C1.34 1.34 0.68 0.68 0 0 Z " fill="#2C2829" transform="translate(256,118)"/>
<path d="M0 0 C4.62 0.66 9.24 1.32 14 2 C14 2.66 14 3.32 14 4 C14.66 4.33 15.32 4.66 16 5 C13.54159395 5.02691685 11.08348118 5.04679802 8.625 5.0625 C7.92632812 5.07087891 7.22765625 5.07925781 6.5078125 5.08789062 C1.2265625 5.11328125 1.2265625 5.11328125 -1 4 C-0.67 2.68 -0.34 1.36 0 0 Z " fill="#212225" transform="translate(233,179)"/>
<path d="M0 0 C1.485 0.99 1.485 0.99 3 2 C3.36328125 5.1875 3.36328125 5.1875 3.3125 9 C3.30863281 10.258125 3.30476562 11.51625 3.30078125 12.8125 C3 16 3 16 1 18 C0.34 17.67 -0.32 17.34 -1 17 C-1.02721176 15.10424749 -1.04649136 13.20838021 -1.0625 11.3125 C-1.07410156 10.25675781 -1.08570313 9.20101562 -1.09765625 8.11328125 C-1.00865425 5.27589738 -0.64939838 2.7561081 0 0 Z " fill="#131B20" transform="translate(193,82)"/>
<path d="M0 0 C0 1.32 0 2.64 0 4 C-3.9813783 5.3271261 -7.85045227 5.06915913 -12 5 C-12 4.67 -12 4.34 -12 4 C-15.3 3.67 -18.6 3.34 -22 3 C-22 2.67 -22 2.34 -22 2 C-19.27123692 1.66304138 -16.54206837 1.33031571 -13.8125 1 C-13.04357422 0.90460938 -12.27464844 0.80921875 -11.48242188 0.7109375 C-7.63071189 0.24807106 -3.88829149 -0.12467468 0 0 Z " fill="#14191E" transform="translate(416,425)"/>
<path d="M0 0 C2.93774463 -0.05390357 5.87450232 -0.0936255 8.8125 -0.125 C10.06256836 -0.15013672 10.06256836 -0.15013672 11.33789062 -0.17578125 C12.14033203 -0.18222656 12.94277344 -0.18867188 13.76953125 -0.1953125 C14.50792236 -0.20578613 15.24631348 -0.21625977 16.00708008 -0.22705078 C18 0 18 0 21 2 C20.67 2.66 20.34 3.32 20 4 C15.33485757 4.07404988 10.71492954 4.06513227 6.0625 3.6875 C4.96615234 3.60048828 4.96615234 3.60048828 3.84765625 3.51171875 C2 3 2 3 0 0 Z " fill="#12191D" transform="translate(410,329)"/>
<path d="M0 0 C0.99 0.33 1.98 0.66 3 1 C4 4 4 4 3.00390625 6.04296875 C2.52824219 6.75066406 2.05257812 7.45835937 1.5625 8.1875 C1.08941406 8.90292969 0.61632812 9.61835938 0.12890625 10.35546875 C-0.42990234 11.16951172 -0.42990234 11.16951172 -1 12 C-1.66 11.67 -2.32 11.34 -3 11 C-3.33 11.66 -3.66 12.32 -4 13 C-4.66 13 -5.32 13 -6 13 C-4.58707905 8.1725201 -2.57025846 4.2837641 0 0 Z " fill="#22272C" transform="translate(186,244)"/>
<path d="M0 0 C0 0.33 0 0.66 0 1 C-6.6 1.66 -13.2 2.32 -20 3 C-19.67 1.68 -19.34 0.36 -19 -1 C-12.48520372 -3.17159876 -6.30641581 -2.1021386 0 0 Z " fill="#151B20" transform="translate(263,120)"/>
<path d="M0 0 C1.77119803 0.14133499 3.54195287 0.28823208 5.3125 0.4375 C6.29863281 0.51871094 7.28476562 0.59992188 8.30078125 0.68359375 C11 1 11 1 14 2 C14 2.66 14 3.32 14 4 C9.34462607 4.83796731 5.62921525 5.0161692 1 4 C1.66 3.67 2.32 3.34 3 3 C3 2.34 3 1.68 3 1 C2.01 0.67 1.02 0.34 0 0 Z " fill="#141B20" transform="translate(335,421)"/>
<path d="M0 0 C3 2 3 2 3.8125 5.25 C4.00458231 9.09164626 3.46012151 11.47853048 2 15 C-0.34240025 12.65759975 -0.36283032 11.82911717 -0.6875 8.625 C-0.77386719 7.85414063 -0.86023438 7.08328125 -0.94921875 6.2890625 C-1.00027694 3.98751626 -0.66593825 2.19308988 0 0 Z " fill="#161E24" transform="translate(434,284)"/>
<path d="M0 0 C2.68092691 2.68092691 2.38670257 4.39167363 2.625 8.125 C2.69976562 9.22070312 2.77453125 10.31640625 2.8515625 11.4453125 C2.92503906 12.70988281 2.92503906 12.70988281 3 14 C1.35 14 -0.3 14 -2 14 C-1.33333333 9.33333333 -0.66666667 4.66666667 0 0 Z " fill="#2C3136" transform="translate(440,311)"/>
<path d="M0 0 C9.17286652 -0.63019694 9.17286652 -0.63019694 12.625 2 C13.07875 2.66 13.5325 3.32 14 4 C13.01 4 12.02 4 11 4 C10.67 4.99 10.34 5.98 10 7 C9.34 6.67 8.68 6.34 8 6 C7.01 7.485 7.01 7.485 6 9 C5.67 6.69 5.34 4.38 5 2 C3.35 1.67 1.7 1.34 0 1 C0 0.67 0 0.34 0 0 Z " fill="#26272C" transform="translate(248,203)"/>
<path d="M0 0 C0.66 0 1.32 0 2 0 C1.8858134 1.93816735 1.75826577 3.87555099 1.625 5.8125 C1.55539062 6.89144531 1.48578125 7.97039062 1.4140625 9.08203125 C1 12 1 12 -1 15 C-1.8723412 12.00519083 -2.10829766 9.36424089 -2.0625 6.25 C-2.05347656 5.45078125 -2.04445313 4.6515625 -2.03515625 3.828125 C-2.02355469 3.22484375 -2.01195312 2.6215625 -2 2 C-1.34 2 -0.68 2 0 2 C0 1.34 0 0.68 0 0 Z " fill="#1D2428" transform="translate(439,306)"/>
<path d="M0 0 C0 0.99 0 1.98 0 3 C-2.64458379 4.32229189 -4.67761301 4.09677194 -7.625 4.0625 C-8.62789063 4.05347656 -9.63078125 4.04445313 -10.6640625 4.03515625 C-11.43492187 4.02355469 -12.20578125 4.01195312 -13 4 C-12.67 3.01 -12.34 2.02 -12 1 C-7.95858806 0.36605303 -4.0934693 -0.12404452 0 0 Z " fill="#12191E" transform="translate(338,388)"/>
<path d="M0 0 C1.95803507 -0.05389087 3.91648909 -0.09274217 5.875 -0.125 C7.51082031 -0.15980469 7.51082031 -0.15980469 9.1796875 -0.1953125 C12 0 12 0 14 2 C11.23547967 3.38226016 8.9538637 3.09525387 5.875 3.0625 C4.77929688 3.05347656 3.68359375 3.04445312 2.5546875 3.03515625 C1.29011719 3.01775391 1.29011719 3.01775391 0 3 C0 2.01 0 1.02 0 0 Z " fill="#0F181E" transform="translate(253,153)"/>
<path d="M0 0 C0.66 0 1.32 0 2 0 C2.08114106 1.77007714 2.13925505 3.54122098 2.1875 5.3125 C2.23970703 6.79169922 2.23970703 6.79169922 2.29296875 8.30078125 C2 11 2 11 0.48828125 12.85546875 C-0.00285156 13.23316406 -0.49398438 13.61085938 -1 14 C-1.02685938 11.85423363 -1.04633088 9.70837355 -1.0625 7.5625 C-1.07410156 6.36753906 -1.08570313 5.17257812 -1.09765625 3.94140625 C-1 1 -1 1 0 0 Z " fill="#151B21" transform="translate(438,371)"/>
<path d="M0 0 C5.28 0.33 10.56 0.66 16 1 C15.67 1.99 15.34 2.98 15 4 C10.71 4 6.42 4 2 4 C1.34 2.68 0.68 1.36 0 0 Z " fill="#262529" transform="translate(406,329)"/>
<path d="M0 0 C0.99 0.33 1.98 0.66 3 1 C1.21427748 2.83947337 -0.57802449 4.67157741 -2.375 6.5 C-2.88289063 7.02464844 -3.39078125 7.54929688 -3.9140625 8.08984375 C-5.23832604 9.43153181 -6.61605865 10.71995815 -8 12 C-8.66 12 -9.32 12 -10 12 C-8.52278578 8.54798361 -6.56205999 6.35038064 -3.875 3.75 C-3.15054687 3.04359375 -2.42609375 2.3371875 -1.6796875 1.609375 C-1.12539063 1.07828125 -0.57109375 0.5471875 0 0 Z " fill="#11181E" transform="translate(298,180)"/>
<path d="M0 0 C1.16144531 0.20367187 2.32289063 0.40734375 3.51953125 0.6171875 C4.39996094 0.78476563 5.28039062 0.95234375 6.1875 1.125 C6.1875 1.455 6.1875 1.785 6.1875 2.125 C3.56299914 2.34619939 0.93879514 2.55246669 -1.6875 2.75 C-2.43386719 2.81445312 -3.18023437 2.87890625 -3.94921875 2.9453125 C-5.8995047 3.08587365 -7.85719467 3.11259849 -9.8125 3.125 C-10.4725 2.465 -11.1325 1.805 -11.8125 1.125 C-7.51476021 -1.06029142 -4.69136533 -0.85297551 0 0 Z " fill="#D28E71" transform="translate(254.8125,115.875)"/>
<path d="M0 0 C0.33 0 0.66 0 1 0 C1 1.98 1 3.96 1 6 C1.66 6 2.32 6 3 6 C3 7.98 3 9.96 3 12 C1.68 12 0.36 12 -1 12 C-1.08159574 7.83861737 -0.98248524 4.0527516 0 0 Z " fill="#14191E" transform="translate(437,392)"/>
<path d="M0 0 C0.33 0 0.66 0 1 0 C1.36275656 2.26947697 1.71493186 4.54064735 2.0625 6.8125 C2.25972656 8.07707031 2.45695312 9.34164062 2.66015625 10.64453125 C3 14 3 14 2 17 C1.34 17 0.68 17 0 17 C-1.40333568 11.23073111 -0.67296616 5.81856895 0 0 Z " fill="#302B2A" transform="translate(277,127)"/>
<path d="M0 0 C0.33 0 0.66 0 1 0 C1.05395478 1.62463842 1.09277195 3.24978541 1.125 4.875 C1.14820313 5.77992187 1.17140625 6.68484375 1.1953125 7.6171875 C1 10 1 10 -1 12 C-1.33 11.67 -1.66 11.34 -2 11 C-2.66 11.66 -3.32 12.32 -4 13 C-3.67 10.69 -3.34 8.38 -3 6 C-2.01 5.67 -1.02 5.34 0 5 C0 3.35 0 1.7 0 0 Z " fill="#10161B" transform="translate(340,122)"/>
<path d="M0 0 C0.66 0 1.32 0 2 0 C0.59155282 3.21524305 -1.10344786 5.32183868 -3.625 7.75 C-4.57246094 8.67039062 -4.57246094 8.67039062 -5.5390625 9.609375 C-6.02117187 10.06828125 -6.50328125 10.5271875 -7 11 C-7.66 10.67 -8.32 10.34 -9 10 C-7.5484451 8.32742645 -6.08855591 6.66208242 -4.625 5 C-3.81289063 4.071875 -3.00078125 3.14375 -2.1640625 2.1875 C-1.44992187 1.465625 -0.73578125 0.74375 0 0 Z " fill="#D28E71" transform="translate(264,386)"/>
<path d="M0 0 C0.33 0.66 0.66 1.32 1 2 C2.32 2 3.64 2 5 2 C4.34 4.64 3.68 7.28 3 10 C2.34 9.01 1.68 8.02 1 7 C0.34 7 -0.32 7 -1 7 C-0.67 4.69 -0.34 2.38 0 0 Z " fill="#28282A" transform="translate(435,402)"/>
<path d="M0 0 C1.32 0.33 2.64 0.66 4 1 C4 2.98 4 4.96 4 7 C3.34 7 2.68 7 2 7 C1.67 7.66 1.34 8.32 1 9 C0.67 6.03 0.34 3.06 0 0 Z " fill="#141B1F" transform="translate(204,277)"/>
<path d="M0 0 C2.1519437 3.22791555 2.20086443 4.28400809 2 8 C1.34 8 0.68 8 0 8 C-0.33 8.66 -0.66 9.32 -1 10 C-2.4783226 7.04335481 -2.06032783 4.25770263 -2 1 C-1.34 0.67 -0.68 0.34 0 0 Z " fill="#131A1E" transform="translate(257,207)"/>
<path d="M0 0 C0.66 0.33 1.32 0.66 2 1 C1.67 3.31 1.34 5.62 1 8 C0.67 7.34 0.34 6.68 0 6 C-1.32 6.33 -2.64 6.66 -4 7 C-3.67 5.02 -3.34 3.04 -3 1 C-2.01 0.67 -1.02 0.34 0 0 Z " fill="#272D33" transform="translate(173,284)"/>
<path d="M0 0 C1.1796875 1.640625 1.1796875 1.640625 2 4 C0.8828125 6.796875 0.8828125 6.796875 -0.875 9.75 C-1.44992188 10.73484375 -2.02484375 11.7196875 -2.6171875 12.734375 C-3.07351562 13.48203125 -3.52984375 14.2296875 -4 15 C-4.66 13.68 -5.32 12.36 -6 11 C-5.195625 10.113125 -4.39125 9.22625 -3.5625 8.3125 C-1.2960841 5.61712968 -0.31582634 3.57936522 0 0 Z " fill="#C1876C" transform="translate(226,141)"/>
<path d="M0 0 C0.33 1.32 0.66 2.64 1 4 C-0.98 4.33 -2.96 4.66 -5 5 C-5 4.34 -5 3.68 -5 3 C-5.99 2.67 -6.98 2.34 -8 2 C-4.77208445 -0.1519437 -3.71599191 -0.20086443 0 0 Z " fill="#222325" transform="translate(337,420)"/>
<path d="M0 0 C2 2 2 2 2.3125 4.9375 C2 8 2 8 0.5 9.875 C-0.2425 10.431875 -0.2425 10.431875 -1 11 C-2.0257259 6.58937864 -2.03684712 4.07369424 0 0 Z " fill="#12191E" transform="translate(201,137)"/>
<path d="M0 0 C0.598125 0.20625 1.19625 0.4125 1.8125 0.625 C0.8125 3.625 0.8125 3.625 -1.25 4.8125 C-1.889375 5.080625 -2.52875 5.34875 -3.1875 5.625 C-3.8475 4.965 -4.5075 4.305 -5.1875 3.625 C-5.1875 2.965 -5.1875 2.305 -5.1875 1.625 C-2.1875 -0.375 -2.1875 -0.375 0 0 Z " fill="#282527" transform="translate(311.1875,411.375)"/>
<path d="M0 0 C1.32 0.33 2.64 0.66 4 1 C3.34 2.65 2.68 4.3 2 6 C1.34 5.67 0.68 5.34 0 5 C-0.66 6.32 -1.32 7.64 -2 9 C-2.25 3.375 -2.25 3.375 0 0 Z " fill="#15191E" transform="translate(223,153)"/>
<path d="M0 0 C2 2 2 2 2.125 4.625 C2.08375 5.40875 2.0425 6.1925 2 7 C1.34 7 0.68 7 0 7 C-0.33 7.66 -0.66 8.32 -1 9 C-1.625 5.625 -1.625 5.625 -2 2 C-1.34 1.34 -0.68 0.68 0 0 Z " fill="#151B1F" transform="translate(431,264)"/>
<path d="M0 0 C3.5 -0.375 3.5 -0.375 7 0 C7.66 0.99 8.32 1.98 9 3 C5.37 3 1.74 3 -2 3 C-1.34 2.01 -0.68 1.02 0 0 Z " fill="#11181A" transform="translate(277,231)"/>
<path d="M0 0 C2.3828125 -0.29296875 2.3828125 -0.29296875 5.125 -0.1875 C6.03507812 -0.16042969 6.94515625 -0.13335937 7.8828125 -0.10546875 C8.58148438 -0.07066406 9.28015625 -0.03585938 10 0 C10 0.33 10 0.66 10 1 C8.8553125 1.185625 8.8553125 1.185625 7.6875 1.375 C4.79732864 1.88102792 4.79732864 1.88102792 2 4 C-0.1875 3.625 -0.1875 3.625 -2 3 C-1.34 2.01 -0.68 1.02 0 0 Z " fill="#252427" transform="translate(273,230)"/>
<path d="M0 0 C0.33 0.99 0.66 1.98 1 3 C-0.98 3.33 -2.96 3.66 -5 4 C-5 3.34 -5 2.68 -5 2 C-6.32 1.67 -7.64 1.34 -9 1 C-5.92677456 0.08941469 -3.19902639 -0.08886184 0 0 Z " fill="#13191F" transform="translate(252,179)"/>
<path d="M0 0 C0.66 0 1.32 0 2 0 C2.33 2.31 2.66 4.62 3 7 C1.35 7.33 -0.3 7.66 -2 8 C-2 6.35 -2 4.7 -2 3 C-1.34 3 -0.68 3 0 3 C0 2.01 0 1.02 0 0 Z " fill="#2F3033" transform="translate(316,166)"/>
<path d="M0 0 C1.0625 1.875 1.0625 1.875 2 4 C1.67 4.66 1.34 5.32 1 6 C0.01 6 -0.98 6 -2 6 C-2.33 6.66 -2.66 7.32 -3 8 C-3.66 7.67 -4.32 7.34 -5 7 C-3.75023244 3.34683329 -3.32901247 2.21934164 0 0 Z " fill="#1F2226" transform="translate(338,132)"/>
<path d="M0 0 C1.65 0 3.3 0 5 0 C5 0.99 5 1.98 5 3 C2.69 3.33 0.38 3.66 -2 4 C-1.34 2.68 -0.68 1.36 0 0 Z " fill="#151A1F" transform="translate(392,373)"/>
<path d="M0 0 C1.2065625 0.0309375 1.2065625 0.0309375 2.4375 0.0625 C2.4375 1.0525 2.4375 2.0425 2.4375 3.0625 C-1.6152516 4.04498524 -5.40111737 4.14409574 -9.5625 4.0625 C-9.5625 3.7325 -9.5625 3.4025 -9.5625 3.0625 C-8.1084375 2.5984375 -8.1084375 2.5984375 -6.625 2.125 C-0.53780864 0.01311728 -0.53780864 0.01311728 0 0 Z " fill="#292B31" transform="translate(366.5625,424.9375)"/>
<path d="M0 0 C0.66 0.99 1.32 1.98 2 3 C-0.97 5.475 -0.97 5.475 -4 8 C-4.33 7.34 -4.66 6.68 -5 6 C-3.35 4.02 -1.7 2.04 0 0 Z " fill="#24292D" transform="translate(330,147)"/>
<path d="M0 0 C0.33 0 0.66 0 1 0 C1.33 4.29 1.66 8.58 2 13 C1.01 13 0.02 13 -1 13 C-0.67 8.71 -0.34 4.42 0 0 Z " fill="#0E1418" transform="translate(190,125)"/>
<path d="M0 0 C-0.33 1.65 -0.66 3.3 -1 5 C-1.66 5 -2.32 5 -3 5 C-3.66 5.66 -4.32 6.32 -5 7 C-4.625 4.0625 -4.625 4.0625 -4 1 C-2 0 -2 0 0 0 Z " fill="#151B1F" transform="translate(176,280)"/>
<path d="M0 0 C1.65 0 3.3 0 5 0 C4.67 1.65 4.34 3.3 4 5 C2.33333333 5 0.66666667 5 -1 5 C-0.67 3.35 -0.34 1.7 0 0 Z " fill="#2B2829" transform="translate(318,127)"/>
<path d="M0 0 C2.475 0.495 2.475 0.495 5 1 C4.67 2.65 4.34 4.3 4 6 C3.34 5.67 2.68 5.34 2 5 C2 4.34 2 3.68 2 3 C1.34 3 0.68 3 0 3 C0 2.01 0 1.02 0 0 Z " fill="#20272B" transform="translate(316,178)"/>
<path d="M0 0 C1.32 0 2.64 0 4 0 C4 1.32 4 2.64 4 4 C2.35 4.66 0.7 5.32 -1 6 C-0.67 4.02 -0.34 2.04 0 0 Z " fill="#242325" transform="translate(326,118)"/>
<path d="M0 0 C0.625 1.8125 0.625 1.8125 1 4 C-1 7 -1 7 -3 8 C-2.25 2.25 -2.25 2.25 0 0 Z " fill="#19222D" transform="translate(371,323)"/>
<path d="M0 0 C0.33 0.66 0.66 1.32 1 2 C1.66 2 2.32 2 3 2 C3.33 3.65 3.66 5.3 4 7 C3.67 6.34 3.34 5.68 3 5 C1.68 5.33 0.36 5.66 -1 6 C-0.67 4.02 -0.34 2.04 0 0 Z " fill="#30373D" transform="translate(167,295)"/>
<path d="M0 0 C2.125 0.9375 2.125 0.9375 4 2 C4 2.66 4 3.32 4 4 C2.35 4.33 0.7 4.66 -1 5 C-1.33 3.68 -1.66 2.36 -2 1 C-1.34 0.67 -0.68 0.34 0 0 Z " fill="#1D242B" transform="translate(369,203)"/>
<path d="M0 0 C1.65 0.33 3.3 0.66 5 1 C4.01 1.495 4.01 1.495 3 2 C3 2.66 3 3.32 3 4 C0.03 3.505 0.03 3.505 -3 3 C-2.01 2.67 -1.02 2.34 0 2 C0 1.34 0 0.68 0 0 Z " fill="#131A1E" transform="translate(337,193)"/>
<path d="M0 0 C1.9375 0.375 1.9375 0.375 4 1 C4.33 1.66 4.66 2.32 5 3 C3.35 3.33 1.7 3.66 0 4 C0 2.68 0 1.36 0 0 Z " fill="#131A1F" transform="translate(364,379)"/>
<path d="M0 0 C1.98 0.495 1.98 0.495 4 1 C4 2.32 4 3.64 4 5 C2.35 4.67 0.7 4.34 -1 4 C-0.67 2.68 -0.34 1.36 0 0 Z " fill="#262527" transform="translate(249,151)"/>
<path d="M0 0 C0.99 0.33 1.98 0.66 3 1 C3.33 2.65 3.66 4.3 4 6 C2.0625 5.6875 2.0625 5.6875 0 5 C-0.33 4.01 -0.66 3.02 -1 2 C-0.67 1.34 -0.34 0.68 0 0 Z " fill="#1A2024" transform="translate(190,136)"/>
</svg>